<?xml version="1.0" encoding="utf-8"?>
<!-- Generator: Adobe Illustrator 28.3.0, SVG Export Plug-In . SVG Version: 6.00 Build 0)  -->
<svg version="1.1" id="레이어_1" xmlns="http://www.w3.org/2000/svg" xmlns:xlink="http://www.w3.org/1999/xlink" x="0px"
	 y="0px" viewBox="0 0 1080 1900" style="enable-background:new 0 0 1080 1900;" xml:space="preserve">
<style type="text/css">
	.st0{fill:#FFFFFF;}
</style>
<g>
	<path class="st0" d="M404.73,969c0.18,0.09-0.16,0.65-1.01,1.69c-0.86,1.04-2,2.32-3.44,3.85c-1.35,1.53-2.32,2.66-2.9,3.38
		c-0.59,0.72-0.61,0.86-0.07,0.41c0.63-0.54,1.33-1.19,2.09-1.96c0.76-0.76,1.37-1.46,1.82-2.09c0.99-1.26,1.69-1.93,2.09-2.03
		c0.4-0.09,0.29,0.41-0.34,1.49l-0.81,1.35l1.08-1.08l1.08-1.08l-0.13,2.16c-0.09,1.53-0.52,3.13-1.28,4.79
		c-0.77,1.67-1.78,3.17-3.04,4.52c-1.35,1.35-2.75,2.86-4.18,4.52c-1.44,1.67-2.81,3.26-4.12,4.79c-1.31,1.53-2.45,2.93-3.44,4.19
		c-0.99,1.26-1.71,2.21-2.16,2.83c-0.54,0.81-1.28,1.78-2.23,2.9c-0.94,1.13-1.82,2.09-2.63,2.9c-0.9,0.72-1.67,1.4-2.29,2.03
		c-0.63,0.63-0.95,1.04-0.95,1.21c-0.18,0.27-0.92,0.9-2.23,1.89c-1.31,0.99-2.63,1.85-3.98,2.57c-2.34,1.35-4.41,2.07-6.21,2.16
		c-1.8,0.09-3.92-0.36-6.35-1.35c-1.26-0.45-2.68-1.64-4.25-3.58c-1.58-1.93-2.86-3.98-3.85-6.14c-0.18-0.45-0.34-0.88-0.47-1.28
		c-0.13-0.41-0.23-0.92-0.27-1.55c-0.05-0.63-0.07-1.44-0.07-2.43c0-0.99,0-2.34,0-4.05c0-2.07,0.02-3.94,0.07-5.6
		c0.04-1.66,0.11-2.72,0.2-3.17c0.09-0.99,0-1.49-0.27-1.49c-0.18,0-0.32-0.36-0.41-1.08c-0.09-0.72-0.09-2.2,0-4.46
		c0-1.53,0-2.81,0-3.85c0-1.03-0.09-1.55-0.27-1.55c-0.18,0-0.67,0.36-1.48,1.08c-0.81,0.72-1.78,1.62-2.9,2.7
		c-1.13,1.08-2.27,2.25-3.44,3.51c-1.17,1.26-2.21,2.43-3.1,3.51c-2.88,3.33-5.36,6.46-7.43,9.38c-2.07,2.92-3.6,5.47-4.59,7.63
		c-0.27,0.72-0.61,1.49-1.01,2.29c-0.4,0.81-0.74,1.44-1.01,1.89c-0.27,0.54-0.56,1.13-0.88,1.75c-0.32,0.63-0.56,1.13-0.74,1.48
		c-0.54,1.26-0.92,2.05-1.15,2.36c-0.23,0.32-0.52,0.56-0.88,0.74c-0.18,0.18-0.43,0.34-0.74,0.47c-0.32,0.13-0.61,0.29-0.88,0.47
		c-0.72,0.54-1.42,0.63-2.09,0.27c-0.67-0.36-1.24-1.03-1.69-2.03c-0.18-0.54-0.52-1.17-1.01-1.89c-0.5-0.72-0.97-1.3-1.42-1.75
		c-0.99-1.08-1.6-2.09-1.82-3.04c-0.23-0.94-0.34-2.54-0.34-4.79c0-0.81,0.07-1.87,0.2-3.17c0.13-1.3,0.29-2.68,0.47-4.12
		c0.18-1.44,0.4-2.92,0.67-4.46c0.27-1.53,0.54-2.88,0.81-4.05c0.45-2.07,0.74-3.92,0.88-5.54c0.13-1.62,0.07-2.52-0.2-2.7
		c-0.18-0.09-0.29-0.52-0.34-1.28c-0.05-0.76-0.07-1.69-0.07-2.77s-0.02-2-0.07-2.77c-0.05-0.76-0.11-1.15-0.2-1.15
		c-0.18,0-0.68,0.47-1.48,1.42c-0.81,0.94-1.8,2.05-2.97,3.31c-3.42,3.96-6.86,8.26-10.33,12.89c-3.47,4.64-6.75,9.32-9.85,14.04
		c-3.1,4.73-5.96,9.38-8.57,13.97c-2.61,4.59-4.77,8.82-6.48,12.69c-0.54,1.17-1.1,2.27-1.69,3.31c-0.58,1.04-1.1,1.73-1.55,2.09
		c-0.9,0.9-1.35,1.58-1.35,2.03c0,0.18-0.13,0.52-0.4,1.01c-0.27,0.5-0.61,0.99-1.01,1.48c-0.4,0.5-0.79,0.92-1.15,1.28
		c-0.36,0.36-0.58,0.5-0.67,0.4c-0.09,0-0.25-0.02-0.47-0.07c-0.22-0.04-0.52-0.07-0.88-0.07v-0.13c-0.72,0-1.17-0.22-1.35-0.67
		c-0.18-0.45-0.45-0.67-0.81-0.67c-0.45,0-0.88-0.27-1.28-0.81c-0.41-0.54-0.79-1.19-1.15-1.96c-0.36-0.76-0.65-1.62-0.88-2.57
		c-0.22-0.95-0.34-1.82-0.34-2.63c0-0.99,0.41-2.86,1.22-5.6c0.81-2.74,1.94-6.1,3.38-10.06c1.44-3.96,3.17-8.39,5.2-13.3
		c2.02-4.9,4.21-10.06,6.55-15.46c1.17-2.7,2.25-5.22,3.24-7.56c0.99-2.34,1.84-4.41,2.56-6.21c0.72-1.8,1.28-3.22,1.69-4.25
		c0.41-1.03,0.61-1.6,0.61-1.69c-0.27-0.27-0.72-0.13-1.35,0.41c-0.81,0.63-1.21,0.7-1.21,0.2c0-0.49,0.41-1.28,1.21-2.36
		c0.45-0.54,1.08-1.44,1.89-2.7c0.81-1.26,1.62-2.52,2.43-3.78c0.99-1.62,2-3.24,3.04-4.86c1.03-1.62,2.02-3.06,2.97-4.32
		c0.95-1.26,1.75-2.29,2.43-3.1c0.67-0.81,1.15-1.26,1.42-1.35c0.63-0.18,1.51-0.13,2.63,0.14c1.12,0.27,1.91,0.63,2.36,1.08
		c0.72,0.54,1.3,0.81,1.75,0.81c0.45,0.09,0.74,0.23,0.88,0.41c0.13,0.18,0.16,0.63,0.07,1.35c0,0.99,0.22,1.49,0.68,1.49
		c0.45,0,0.72,0.23,0.81,0.67c0.09,0.45-0.09,0.77-0.54,0.95c-0.27,0.18-0.59,0.67-0.95,1.48c-0.18,0.36-0.54,1.01-1.08,1.96
		s-1.17,1.91-1.89,2.9c-0.72,0.99-1.58,2.34-2.56,4.05c-0.99,1.71-1.85,3.29-2.57,4.73c-0.81,1.62-1.71,3.49-2.7,5.6
		c-0.99,2.12-1.91,4.12-2.77,6.01c-0.86,1.89-1.53,3.47-2.02,4.73c-0.5,1.26-0.65,1.75-0.47,1.48c0.18-0.18,0.81-0.94,1.89-2.29
		c1.08-1.35,2.25-2.88,3.51-4.59c1.35-1.62,2.77-3.31,4.25-5.06c1.49-1.75,2.92-3.38,4.32-4.86c1.39-1.48,2.68-2.83,3.85-4.05
		c1.17-1.21,2.11-2.09,2.84-2.63c0.72-0.45,1.39-0.79,2.02-1.01c0.63-0.22,1.44-0.38,2.43-0.47c1.17-0.09,1.96-0.07,2.36,0.07
		c0.4,0.13,0.97,0.43,1.69,0.88c0.99,0.81,1.71,1.21,2.16,1.21c0.45,0,0.88,0.29,1.28,0.88c0.4,0.59,0.97,1.64,1.69,3.17
		c0.27,0.63,0.49,1.17,0.67,1.62c0.18,0.45,0.29,1.01,0.34,1.69c0.04,0.67,0.07,1.58,0.07,2.7c0,1.13,0,2.72,0,4.79
		c0,1.98-0.02,3.65-0.07,5c-0.05,1.35-0.14,2.7-0.27,4.05c-0.14,1.35-0.34,2.88-0.61,4.59c-0.27,1.71-0.63,3.92-1.08,6.62
		l-0.14,1.49l1.48-2.16c1.89-2.88,3.94-5.71,6.14-8.5c2.2-2.79,4.39-5.38,6.55-7.76c2.16-2.38,4.23-4.48,6.21-6.28
		c1.98-1.8,3.69-3.11,5.13-3.92c0.45-0.27,1.03-0.45,1.75-0.54c0.72-0.09,1.48-0.11,2.29-0.07c0.81,0.05,1.55,0.18,2.23,0.41
		c0.68,0.23,1.19,0.47,1.55,0.74c0.54,0.45,0.94,0.9,1.21,1.35c0,0.18,0.18,0.54,0.54,1.08c0.36,0.45,0.65,0.99,0.88,1.62
		c0.22,0.63,0.38,1.55,0.47,2.77c0.09,1.21,0.16,2.83,0.2,4.86c0.04,2.02,0.07,4.7,0.07,8.03c-0.09,4.23-0.09,7.79,0,10.67
		c0.09,2.88,0.22,4.95,0.4,6.21l0.41,3.78l1.48,0.13c0.9,0.18,2.23-0.13,3.98-0.95c1.75-0.81,3.49-1.84,5.2-3.1
		c1.26-0.9,2.97-2.32,5.13-4.25c2.16-1.93,4.43-4.07,6.82-6.41c2.38-2.34,4.77-4.75,7.15-7.22c2.38-2.47,4.43-4.7,6.14-6.68
		c3.51-4.14,6.14-7.13,7.9-8.98C403.58,969.79,404.55,968.92,404.73,969z M261.63,1030.83c0.27-0.72,0.27-1.21,0-1.48
		c-0.36-0.36-0.54-0.04-0.54,0.94c0.09,0.72,0.16,1.1,0.2,1.15C261.34,1031.49,261.45,1031.28,261.63,1030.83z M267.98,1012.2
		c0.45-1.17,0.83-2.18,1.15-3.04c0.32-0.85,0.47-1.37,0.47-1.55c0-0.18-0.09-0.18-0.27,0c-0.18,0.18-0.38,0.45-0.61,0.81
		c-0.22,0.36-0.4,0.72-0.54,1.08c-0.13,0.36-0.2,0.63-0.2,0.81c0,0.54-0.13,0.94-0.4,1.21c-0.09,0.09-0.22,0.38-0.4,0.88
		c-0.18,0.5-0.36,1.06-0.54,1.69c-0.18,0.72-0.43,1.4-0.74,2.03c-0.31,0.63-0.56,1.13-0.74,1.49c-0.18,0.36-0.45,0.94-0.81,1.75
		c-0.36,0.81-0.72,1.69-1.08,2.63c-0.36,0.94-0.68,1.8-0.95,2.56c-0.27,0.77-0.4,1.24-0.4,1.42c0,0.18,0.25-0.22,0.74-1.22
		c0.5-0.99,1.06-2.23,1.69-3.71c0.63-1.49,1.28-3.04,1.96-4.66C266.96,1014.77,267.53,1013.37,267.98,1012.2z M281.34,981.02
		c1.08-2.34,2-4.34,2.77-6.01c0.76-1.66,1.1-2.5,1.01-2.5c-0.09,0-0.4,0.4-0.94,1.21c-0.54,0.81-1.17,1.8-1.89,2.97
		c-1.53,2.43-2.72,4.52-3.58,6.28c-0.86,1.75-1.19,2.81-1.01,3.17c0.09,0.09-0.02,0.52-0.34,1.28c-0.32,0.77-0.68,1.58-1.08,2.43
		c-0.4,0.86-0.79,1.64-1.15,2.36c-0.36,0.72-0.63,1.13-0.81,1.21c-0.18,0-0.27,0.27-0.27,0.81c0,0.18-0.13,0.61-0.4,1.28
		c-0.27,0.68-0.63,1.46-1.08,2.36c-0.36,0.9-0.7,1.75-1.01,2.56c-0.32,0.81-0.52,1.44-0.61,1.89c-0.09,0.36-0.18,0.7-0.27,1.01
		c-0.09,0.32-0.22,0.52-0.4,0.61c-0.18,0.18-0.34,0.74-0.47,1.69c-0.14,0.95-0.11,1.42,0.07,1.42c0.18-0.45,0.41-0.99,0.68-1.62
		c0.18-0.45,0.43-0.99,0.74-1.62c0.31-0.63,0.61-1.3,0.88-2.02c0.72-1.8,1.39-3.42,2.03-4.86c0.63-1.44,1.28-2.92,1.96-4.46
		c0.67-1.53,1.42-3.19,2.23-5C279.18,985.7,280.17,983.54,281.34,981.02z M296.19,974.13l-1.22,1.35c-0.72,0.72-1.15,1.17-1.28,1.35
		c-0.14,0.18-0.07,0.27,0.2,0.27s0.72-0.49,1.35-1.49L296.19,974.13z M299.3,970.49c0.27-0.45,0.36-0.67,0.27-0.67
		c-0.18,0-0.41,0.23-0.68,0.67c-0.18,0.18-0.27,0.36-0.27,0.54l-0.13,0.13C298.76,971.16,299.03,970.94,299.3,970.49z"/>
	<path class="st0" d="M471.56,987.77c0.81,0,0.67,0.5-0.41,1.48c-0.81,0.63-1.31,1.4-1.48,2.29c0,0.81-0.18,1.22-0.54,1.22
		c-0.27,0-0.4,0.13-0.4,0.4c0,0.09-0.36,0.59-1.08,1.49c-0.72,0.9-1.62,1.94-2.7,3.1c-1.08,1.17-2,2.21-2.77,3.11
		c-0.77,0.9-1.15,1.4-1.15,1.49c0,0.18-0.34,0.63-1.01,1.35c-0.68,0.72-1.42,1.46-2.23,2.23c-0.81,0.77-1.58,1.46-2.29,2.09
		c-0.72,0.63-1.17,0.94-1.35,0.94c-0.09-0.09-0.18-0.09-0.27,0c-0.09,0.09-0.13,0.23-0.13,0.41c0,0.36-0.52,1.04-1.55,2.03
		c-1.04,0.99-2.32,2.05-3.85,3.17c-1.53,1.13-3.17,2.21-4.93,3.24c-1.75,1.04-3.35,1.87-4.79,2.5c-3.15,1.44-5.9,2.16-8.24,2.16
		c-0.63,0-1.42-0.11-2.36-0.34c-0.94-0.22-1.87-0.54-2.77-0.95c-0.9-0.41-1.69-0.9-2.36-1.49c-0.68-0.58-1.06-1.24-1.15-1.96
		c0-0.18-0.11-0.41-0.34-0.67c-0.23-0.27-0.47-0.54-0.74-0.81c-1.62-1.35-2.43-3.6-2.43-6.75c0-1.17,0.14-2.59,0.41-4.25
		c0.27-1.66,0.63-2.86,1.08-3.58c1.26-3.6,2.59-7.18,3.98-10.73c1.39-3.55,2.99-7,4.79-10.33l1.89-3.65l-1.35,0.95
		c-0.45,0.27-0.95,0.7-1.49,1.28c-0.54,0.59-1.04,1.15-1.48,1.69c-0.54,0.9-0.99,1.51-1.35,1.82c-0.36,0.32-0.81,0.52-1.35,0.61
		c-0.54,0.18-1.19,0.56-1.96,1.15c-0.77,0.59-1.91,1.64-3.44,3.17c-1.08,1.08-2.07,2-2.97,2.77c-0.9,0.77-1.44,1.15-1.62,1.15
		c-0.36,0-0.54,0.23-0.54,0.68c0,0.18-0.07,0.43-0.2,0.74c-0.13,0.32-0.32,0.61-0.54,0.88c-0.23,0.27-0.4,0.47-0.54,0.61
		c-0.14,0.13-0.2,0.11-0.2-0.07c0-0.09-0.09-0.04-0.27,0.14c-0.18,0.18-0.36,0.45-0.54,0.81c-0.18,0.36-0.63,0.97-1.35,1.82
		c-0.72,0.86-1.44,1.78-2.16,2.77c-0.81,0.99-1.94,2.39-3.38,4.19c-1.44,1.8-2.79,3.56-4.05,5.26c-1.44,1.89-2.61,3.42-3.51,4.59
		c-0.9,1.17-1.69,2.14-2.36,2.9c-0.67,0.77-1.33,1.44-1.96,2.03c-0.63,0.59-1.39,1.24-2.29,1.96c-2.25,1.98-3.78,2.97-4.59,2.97
		c-0.27,0-0.52-0.04-0.74-0.13c-0.22-0.09-0.47-0.22-0.74-0.41c-0.9-0.45-1.53-0.85-1.89-1.21c-0.27-0.45-0.54-0.68-0.81-0.68
		s-0.45-0.25-0.54-0.74c-0.09-0.49-0.04-0.83,0.13-1.01c0.36-0.18,0.32-0.4-0.13-0.67c-2.43-1.89-2.47-5.22-0.14-9.99
		c0.45-0.72,0.81-1.37,1.08-1.96c0.27-0.58,0.5-0.88,0.68-0.88c0.27,0,0.38,0.11,0.34,0.34c-0.04,0.23-0.43,1.06-1.15,2.5
		c-0.63,1.26-1.1,2.66-1.42,4.19c-0.31,1.53-0.34,2.52-0.07,2.97c0.27,0.36,0.4,0.32,0.4-0.13c0-0.18,0.09-0.52,0.27-1.01
		c0.18-0.49,0.36-1.01,0.54-1.55c0.63-1.08,0.86-1.98,0.67-2.7c-0.18-0.36-0.16-0.76,0.07-1.21c0.23-0.45,0.74-1.21,1.55-2.29
		c1.44-1.98,1.98-2.97,1.62-2.97c-0.18,0-0.41,0.13-0.68,0.41c-0.45,0.27-0.67,0.27-0.67,0c0-0.27,0.13-0.41,0.4-0.41
		c0.09,0,0.25-0.16,0.47-0.47c0.23-0.31,0.47-0.7,0.74-1.15c0.18-0.45,0.45-0.97,0.81-1.55c0.36-0.58,0.67-1.06,0.94-1.42
		c0.63-0.72,1.33-1.64,2.09-2.77c0.77-1.12,1.37-2.05,1.82-2.77c0.45-0.72,0.99-1.55,1.62-2.5c0.63-0.95,1.26-1.84,1.89-2.7
		c0.63-0.85,1.19-1.57,1.69-2.16c0.49-0.58,0.79-0.92,0.88-1.01c0.36-0.36,0.54-0.72,0.54-1.08c0-0.18,0.2-0.61,0.61-1.28
		c0.4-0.67,0.92-1.42,1.55-2.23c0.72-0.72,1.28-1.39,1.69-2.03c0.41-0.63,0.61-0.99,0.61-1.08c-0.09-0.18,0.61-1.17,2.09-2.97
		c1.48-1.8,3.31-3.92,5.47-6.34c2.61-2.7,4.23-4.19,4.86-4.46c0.27,0,0.65-0.16,1.15-0.47c0.49-0.31,0.97-0.65,1.42-1.01
		c1.53-1.44,3.1-2.16,4.72-2.16c0.45,0,1.26,0.11,2.43,0.34c1.17,0.23,1.89,0.56,2.16,1.01c0.18,0.18,0.43,0.41,0.74,0.67
		c0.31,0.27,0.7,0.5,1.15,0.67c0.45,0.36,0.88,0.81,1.28,1.35c0.4,0.54,0.79,1.17,1.15,1.89c0.36,0.63,0.7,1.17,1.01,1.62
		c0.31,0.45,0.56,0.77,0.74,0.95c0.18,0.09,0.41,0.27,0.68,0.54c0.27,0.27,0.49,0.5,0.67,0.67c0.63,0.63,1.12,0.94,1.48,0.94
		c0.45,0,0.85,0.52,1.22,1.55c0.36,1.04,0.54,2.05,0.54,3.04c0,0.72-0.11,1.58-0.34,2.56c-0.23,0.99-0.56,2.12-1.01,3.38
		c-0.45,0.99-0.92,2.25-1.42,3.78c-0.5,1.53-0.92,2.79-1.28,3.78c-0.36,1.08-0.9,2.59-1.62,4.52c-0.72,1.94-1.44,3.8-2.16,5.6
		c-1.44,3.51-2.48,6.41-3.1,8.71c-0.63,2.29-0.95,4.25-0.95,5.87c0,1.08,0.04,1.76,0.14,2.03c0.09,0.27,0.36,0.45,0.81,0.54
		c1.62,0.45,3.87,0,6.75-1.35c1.62-0.72,3.19-1.51,4.72-2.36c1.53-0.85,3.06-1.8,4.59-2.83c1.53-1.03,3.1-2.18,4.73-3.44
		c1.62-1.26,3.38-2.7,5.26-4.32c1.8-1.62,2.97-2.43,3.51-2.43h0.13c0.54,0,1.93-1.12,4.19-3.38c2.25-2.25,3.55-3.38,3.92-3.38
		l0.14,0.14c0.18,0.18,0.18,0.43,0,0.74c-0.18,0.32-0.36,0.56-0.54,0.74c-0.54,0.54-0.81,0.95-0.81,1.21c0.09,0,0.36-0.2,0.81-0.61
		c0.45-0.4,1.03-0.92,1.75-1.55c1.35-1.53,2.38-2.38,3.1-2.56c0.63-0.18,0.99-0.45,1.08-0.81c0.18-0.54,0.58-1.12,1.21-1.75
		C470.83,988.08,471.29,987.77,471.56,987.77z M422.01,971.57c0.45-1.08,0.81-2,1.08-2.77c0.27-0.76,0.4-1.19,0.4-1.28
		c-0.09,0-0.47,0.25-1.15,0.74c-0.67,0.5-1.4,1.06-2.16,1.69c-0.77,0.63-1.51,1.26-2.23,1.89c-0.72,0.63-1.21,1.08-1.48,1.35
		c-0.45,0.45-0.79,0.7-1.01,0.74c-0.23,0.05-0.25-0.16-0.07-0.61c0.09-0.36,0-0.49-0.27-0.41c-0.18,0.09-0.29,0.23-0.34,0.41
		c-0.05,0.18-0.07,0.36-0.07,0.54c0,0.45-0.43,1.19-1.28,2.23c-0.86,1.04-2.45,2.81-4.79,5.33c-0.72,0.72-1.55,1.64-2.5,2.77
		c-0.94,1.13-1.89,2.29-2.83,3.51c-0.94,1.21-1.85,2.41-2.7,3.58c-0.86,1.17-1.6,2.21-2.23,3.1c-0.36,0.36-0.97,1.22-1.82,2.57
		c-0.86,1.35-1.71,2.81-2.56,4.39c-0.86,1.58-1.62,3.02-2.29,4.32c-0.67,1.31-1.01,2.09-1.01,2.36c0.18,0,0.59-0.36,1.22-1.08
		c0.63-0.72,1.71-1.98,3.24-3.78c2.88-3.42,4.93-5.83,6.14-7.22c1.21-1.39,2.05-2.09,2.5-2.09c0.18,0,0.27,0.18,0.27,0.54
		c0,0.36,0.09,0.27,0.27-0.27c0.36-0.45,0.36-0.85,0-1.21c-0.09-0.18,0.18-0.67,0.81-1.49c0.63-0.81,1.53-1.84,2.7-3.1
		c1.53-1.71,2.56-2.81,3.1-3.31c0.54-0.49,1.03-0.74,1.49-0.74h0.27c0.72,0.09,0.9-0.09,0.54-0.54c-0.27-0.27-0.23-0.65,0.13-1.15
		c0.36-0.49,1.39-1.6,3.1-3.31c0.9-0.99,1.62-1.78,2.16-2.36c0.54-0.58,1.01-1.12,1.42-1.62c0.4-0.49,0.74-1.03,1.01-1.62
		C421.33,973.08,421.65,972.38,422.01,971.57z M392.85,993.44c-0.18,0-0.27,0.13-0.27,0.4c0,0.63,0.32,0.5,0.94-0.4
		c0.36-0.54,0.41-0.85,0.14-0.95c-0.27-0.18-0.41-0.04-0.41,0.41C393.25,993.26,393.12,993.44,392.85,993.44z M417.15,982.23
		l-3.65,3.64c-0.99,0.99-1.96,1.98-2.9,2.97c-0.94,0.99-1.78,1.89-2.5,2.7c-0.72,0.81-1.28,1.46-1.69,1.96
		c-0.4,0.5-0.56,0.74-0.47,0.74c0.09,0,0.58-0.49,1.48-1.48c0.9-0.99,1.98-2.16,3.24-3.51c3.06-3.33,4.81-5,5.27-5
		c0.54,0,0.72-0.13,0.54-0.4C416.48,983.5,416.7,982.96,417.15,982.23z M410.27,991.82c0.27,0.36,0.49,0.45,0.67,0.27
		c0.18-0.18,0.18-0.49,0-0.94c-0.09-0.54-0.32-0.63-0.67-0.27C410,991.05,410,991.37,410.27,991.82z"/>
	<path class="st0" d="M519.62,982.37c1.71-1.8,2.7-2.63,2.97-2.5c0.27,0.13,0.14,1.24-0.4,3.31c-0.18,0.54-0.34,0.99-0.47,1.35
		c-0.13,0.36-0.32,0.74-0.54,1.15c-0.23,0.41-0.52,0.83-0.88,1.28c-0.36,0.45-0.86,1.04-1.48,1.75c-0.81,0.9-1.53,1.67-2.16,2.29
		c-0.63,0.63-1.24,1.13-1.82,1.49c-0.59,0.36-1.19,0.61-1.82,0.74c-0.63,0.14-1.35,0.25-2.16,0.34c-1.8,0.09-2.97,0-3.51-0.27
		c-0.18-0.18-0.45-0.34-0.81-0.47c-0.36-0.14-0.67-0.29-0.94-0.47c-0.54-0.27-1.21-0.81-2.02-1.62s-1.6-1.75-2.36-2.83
		c-0.77-1.08-1.44-2.2-2.02-3.38c-0.59-1.17-1.01-2.16-1.28-2.97c-0.18-0.54-0.34-1.42-0.47-2.63c-0.14-1.21-0.25-2.41-0.34-3.58
		c-0.09-1.17-0.18-2.18-0.27-3.04c-0.09-0.85-0.18-1.37-0.27-1.55c-0.27-0.27-0.77-0.18-1.49,0.27c-0.72,0.36-1.04,0.67-0.94,0.95
		c0.09,0.18,0.04,0.23-0.13,0.13c-0.27-0.18-0.7,0.02-1.28,0.61c-0.59,0.59-0.74,0.97-0.47,1.15c0.18,0.09,0.14,0.13-0.13,0.13
		c-0.27-0.09-0.92,0.36-1.96,1.35c-1.04,0.99-1.96,1.98-2.77,2.97c-0.45,0.63-0.81,0.95-1.08,0.95c-0.27,0.09-0.61,0.36-1.01,0.81
		c-0.41,0.45-0.65,0.86-0.74,1.21c0,0.36-0.23,0.67-0.67,0.95c-0.45,0.18-0.68,0.5-0.68,0.95c0.09,0.27-0.05,0.67-0.4,1.21
		c-0.54,0.63-1.17,1.51-1.89,2.63c-0.72,1.13-1.67,2.68-2.83,4.66c-0.72,1.08-1.33,2.07-1.82,2.97c-0.5,0.9-0.79,1.44-0.88,1.62
		c-0.18,0.18-0.34,0.45-0.47,0.81c-0.14,0.36-0.29,0.77-0.47,1.21c-0.72,1.89-1.35,3.38-1.89,4.46s-1.31,2.48-2.29,4.19
		c-0.54,0.99-1.1,1.96-1.69,2.9c-0.59,0.95-0.97,1.6-1.15,1.96c-0.18,0.36-0.52,0.97-1.01,1.82c-0.5,0.86-0.97,1.69-1.42,2.5
		c-0.54,0.9-1.06,1.78-1.55,2.63c-0.5,0.86-0.83,1.51-1.01,1.96c-0.45,0.99-1.17,2.05-2.16,3.17c-0.99,1.13-1.71,1.69-2.16,1.69
		c-0.18,0-0.36,0-0.54,0c-0.18,0-0.36-0.04-0.54-0.13c-0.36,0-0.63-0.18-0.81-0.54c-0.09-0.27-0.45-0.49-1.08-0.68
		c-0.54-0.18-0.9-0.4-1.08-0.67c-0.18-0.63-0.54-1.26-1.08-1.89l-0.68-1.35l0.68-3.11c0.54-2.79,1.46-6.05,2.77-9.79
		c1.31-3.73,2.99-7.94,5.06-12.62c0.36-0.81,0.76-1.8,1.22-2.97c0.45-1.17,0.85-2.16,1.21-2.97c0.36-0.72,0.76-1.69,1.21-2.9
		c0.45-1.21,0.9-2.27,1.35-3.17c0.45-0.99,0.92-2.11,1.42-3.38c0.49-1.26,0.97-2.38,1.42-3.38c0.81-1.8,1.55-3.4,2.23-4.79
		c0.68-1.39,1.51-2.99,2.5-4.79c0.36-0.72,0.79-1.57,1.28-2.57c0.49-0.99,0.97-1.89,1.42-2.7c0.36-0.72,0.74-1.42,1.15-2.09
		c0.4-0.68,0.7-1.1,0.88-1.28c0.36-0.54,0.54-0.9,0.54-1.08c0-0.27,0.22-0.4,0.67-0.4c1.8-0.36,2.86-0.54,3.17-0.54
		c0.31,0,0.61,0.23,0.88,0.67c0.45,0.45,0.81,0.67,1.08,0.67c0.36,0,0.54,0.23,0.54,0.67c0,0.45-0.18,1.04-0.54,1.76
		c-0.27,0.54-0.4,1.04-0.4,1.48c0,0.18-0.13,0.54-0.4,1.08s-0.63,1.17-1.08,1.89c-1.26,2.07-2.39,4.12-3.38,6.14
		c-0.99,2.03-1.71,3.8-2.16,5.33c-0.27,0.72-0.77,1.96-1.48,3.71c-0.72,1.76-1.44,3.53-2.16,5.33c-1.26,3.15-2.14,5.31-2.63,6.48
		c-0.5,1.17-0.65,1.76-0.47,1.76c0.09,0,0.25-0.2,0.47-0.61c0.22-0.4,0.56-0.92,1.01-1.55c0.72-0.99,1.24-1.64,1.55-1.96
		c0.31-0.31,0.34-0.11,0.07,0.61c-0.09,0.36-0.27,0.68-0.54,0.95c-0.09,0.09-0.32,0.45-0.67,1.08c-0.36,0.63-0.79,1.35-1.28,2.16
		c-0.5,0.81-0.94,1.58-1.35,2.29c-0.4,0.72-0.7,1.26-0.88,1.62c-0.63,1.26-0.72,1.64-0.27,1.15c0.45-0.49,1.35-1.91,2.7-4.25
		c0.81-1.26,1.69-2.65,2.63-4.18c0.95-1.53,1.73-2.7,2.36-3.51c0.81-1.17,1.87-2.61,3.17-4.32c1.3-1.71,2.65-3.42,4.05-5.13
		c1.39-1.71,2.72-3.28,3.98-4.73c1.26-1.44,2.2-2.43,2.83-2.97c0.63-0.54,1.12-0.99,1.48-1.35c0.36-0.36,0.49-0.54,0.4-0.54
		c-0.09,0-0.34,0.13-0.74,0.4c-0.41,0.27-0.88,0.61-1.42,1.01s-1.06,0.83-1.55,1.28c-0.5,0.45-0.88,0.81-1.15,1.08
		c-0.63,0.63-1.44,1.53-2.43,2.7c-0.99,1.17-2.02,2.43-3.1,3.78c-1.08,1.35-2.12,2.68-3.1,3.98c-0.99,1.31-1.8,2.45-2.43,3.44
		c-0.72,1.26-1.35,2.14-1.89,2.63c-0.54,0.5-0.63,0.38-0.27-0.34c0.18-0.27,0.67-0.99,1.48-2.16c0.81-1.17,1.76-2.5,2.83-3.98
		c1.08-1.48,2.2-2.97,3.38-4.46c1.17-1.48,2.16-2.68,2.97-3.58c1.71-1.98,3.15-3.49,4.32-4.52c1.17-1.03,2.25-1.78,3.24-2.23
		c0.45-0.18,1.01-0.29,1.69-0.34c0.67-0.04,1.35,0,2.02,0.14c0.67,0.13,1.28,0.34,1.82,0.61c0.54,0.27,0.9,0.59,1.08,0.94
		c0.18,0.18,0.34,0.38,0.47,0.61c0.14,0.23,0.29,0.38,0.47,0.47c0.54,0.36,1.1,0.99,1.69,1.89c0.58,0.9,1.01,1.85,1.28,2.83
		c0.18,0.45,0.41,1.35,0.68,2.7c0.27,1.35,0.49,2.79,0.67,4.32c0.9,5.04,1.8,7.83,2.7,8.37c0.27,0.18,1.03,0.18,2.29,0
		c0.81-0.09,1.51-0.25,2.09-0.47c0.58-0.22,1.6-0.83,3.04-1.82c0.9-0.63,1.87-1.37,2.9-2.23C518.02,983.74,518.89,983,519.62,982.37
		z M456.84,1017.06c0.36-0.72,0.32-0.81-0.14-0.27c-0.36,0.36-0.54,0.67-0.54,0.95l0.14,0.13L456.84,1017.06z M464.94,994.92
		c0.18-0.27,0.43-0.74,0.74-1.42c0.31-0.67,0.63-1.35,0.94-2.03c0.31-0.67,0.56-1.28,0.74-1.82c0.18-0.54,0.27-0.85,0.27-0.95
		c0-0.09-0.23-0.13-0.67-0.13c-0.36,0-0.68,0.36-0.95,1.08c-0.09,0.18-0.13,0.32-0.13,0.41c0,0.09-0.05,0.18-0.14,0.27
		c0,0.09,0,0.18,0,0.27c0.18,0,0.09,0.27-0.27,0.81c-0.09,0.18-0.29,0.56-0.61,1.15c-0.32,0.59-0.61,1.21-0.88,1.89
		c-0.27,0.67-0.52,1.28-0.74,1.82c-0.23,0.54-0.34,0.9-0.34,1.08c0.09,0.09,0.22,0.05,0.41-0.14c0.18-0.09,0.27-0.04,0.27,0.14
		c-0.18,0.36-0.36,0.45-0.54,0.27c-0.18,0-0.36,0.13-0.54,0.41c-0.09,0.18-0.29,0.72-0.61,1.62c-0.32,0.9-0.7,1.85-1.15,2.83
		c-1.8,4.23-2.43,6.17-1.89,5.8c0.09-0.09,0.16-0.11,0.2-0.07c0.05,0.05,0.02,0.16-0.07,0.34c-0.18,0.27-0.36,0.4-0.54,0.4
		c-0.09-0.09-0.16-0.13-0.2-0.13c-0.04,0,0.02,0.09,0.2,0.27c0.18,0.18,0.2,0.52,0.07,1.01c-0.14,0.5-0.29,0.65-0.47,0.47
		c-0.18,0-0.18,0.13,0,0.41c0.18,0.36,0.05,0.54-0.41,0.54c-0.27,0-0.36,0.18-0.27,0.54c0.18,0.36,0.09,0.95-0.27,1.75
		c-0.72,1.53-0.68,1.71,0.13,0.54c0.18-0.27,0.52-1.01,1.01-2.23c0.5-1.21,1.01-2.59,1.55-4.12c0.54-1.53,1.03-2.83,1.48-3.92
		c0.45-1.08,0.72-1.71,0.81-1.89c0.18-0.18,0.34-0.52,0.47-1.01c0.13-0.49,0.29-0.97,0.47-1.42c0.18-0.54,0.34-1.03,0.47-1.49
		c0.14-0.45,0.29-0.67,0.47-0.67c0.18-0.36,0.27-0.67,0.27-0.94C464.27,996.23,464.49,995.64,464.94,994.92z M467.1,987.09
		c-0.36,0.54-0.5,0.86-0.4,0.95v0.13l0.54-0.81l0.27-0.54L467.1,987.09z M467.91,985.88c0-0.27-0.09-0.36-0.27-0.27
		c-0.18,0.18-0.27,0.36-0.27,0.54C467.46,986.6,467.64,986.51,467.91,985.88z"/>
	<path class="st0" d="M579.69,982.37c1.71-1.8,2.7-2.63,2.97-2.5c0.27,0.13,0.13,1.24-0.4,3.31c-0.18,0.54-0.34,0.99-0.47,1.35
		c-0.13,0.36-0.32,0.74-0.54,1.15c-0.23,0.41-0.52,0.83-0.88,1.28c-0.36,0.45-0.86,1.04-1.48,1.75c-0.81,0.9-1.53,1.67-2.16,2.29
		c-0.63,0.63-1.24,1.13-1.82,1.49c-0.59,0.36-1.19,0.61-1.82,0.74c-0.63,0.14-1.35,0.25-2.16,0.34c-1.8,0.09-2.97,0-3.51-0.27
		c-0.18-0.18-0.45-0.34-0.81-0.47c-0.36-0.14-0.67-0.29-0.94-0.47c-0.54-0.27-1.21-0.81-2.03-1.62c-0.81-0.81-1.6-1.75-2.36-2.83
		c-0.77-1.08-1.44-2.2-2.03-3.38c-0.59-1.17-1.01-2.16-1.28-2.97c-0.18-0.54-0.34-1.42-0.47-2.63s-0.25-2.41-0.34-3.58
		c-0.09-1.17-0.18-2.18-0.27-3.04c-0.09-0.85-0.18-1.37-0.27-1.55c-0.27-0.27-0.77-0.18-1.49,0.27c-0.72,0.36-1.04,0.67-0.95,0.95
		c0.09,0.18,0.04,0.23-0.13,0.13c-0.27-0.18-0.7,0.02-1.28,0.61c-0.59,0.59-0.74,0.97-0.47,1.15c0.18,0.09,0.13,0.13-0.13,0.13
		c-0.27-0.09-0.92,0.36-1.96,1.35c-1.04,0.99-1.96,1.98-2.77,2.97c-0.45,0.63-0.81,0.95-1.08,0.95c-0.27,0.09-0.61,0.36-1.01,0.81
		c-0.41,0.45-0.65,0.86-0.74,1.21c0,0.36-0.23,0.67-0.67,0.95c-0.45,0.18-0.67,0.5-0.67,0.95c0.09,0.27-0.05,0.67-0.41,1.21
		c-0.54,0.63-1.17,1.51-1.89,2.63c-0.72,1.13-1.67,2.68-2.83,4.66c-0.72,1.08-1.33,2.07-1.82,2.97c-0.5,0.9-0.79,1.44-0.88,1.62
		c-0.18,0.18-0.34,0.45-0.47,0.81c-0.14,0.36-0.29,0.77-0.47,1.21c-0.72,1.89-1.35,3.38-1.89,4.46s-1.31,2.48-2.29,4.19
		c-0.54,0.99-1.1,1.96-1.69,2.9c-0.59,0.95-0.97,1.6-1.15,1.96c-0.18,0.36-0.52,0.97-1.01,1.82c-0.5,0.86-0.97,1.69-1.42,2.5
		c-0.54,0.9-1.06,1.78-1.55,2.63c-0.5,0.86-0.83,1.51-1.01,1.96c-0.45,0.99-1.17,2.05-2.16,3.17c-0.99,1.13-1.71,1.69-2.16,1.69
		c-0.18,0-0.36,0-0.54,0c-0.18,0-0.36-0.04-0.54-0.13c-0.36,0-0.63-0.18-0.81-0.54c-0.09-0.27-0.45-0.49-1.08-0.68
		c-0.54-0.18-0.9-0.4-1.08-0.67c-0.18-0.63-0.54-1.26-1.08-1.89l-0.68-1.35l0.68-3.11c0.54-2.79,1.46-6.05,2.77-9.79
		c1.31-3.73,2.99-7.94,5.06-12.62c0.36-0.81,0.76-1.8,1.22-2.97c0.45-1.17,0.85-2.16,1.21-2.97c0.36-0.72,0.76-1.69,1.21-2.9
		c0.45-1.21,0.9-2.27,1.35-3.17c0.45-0.99,0.92-2.11,1.42-3.38c0.49-1.26,0.97-2.38,1.42-3.38c0.81-1.8,1.55-3.4,2.23-4.79
		c0.68-1.39,1.51-2.99,2.5-4.79c0.36-0.72,0.79-1.57,1.28-2.57c0.49-0.99,0.97-1.89,1.42-2.7c0.36-0.72,0.74-1.42,1.15-2.09
		c0.4-0.68,0.7-1.1,0.88-1.28c0.36-0.54,0.54-0.9,0.54-1.08c0-0.27,0.22-0.4,0.67-0.4c1.8-0.36,2.86-0.54,3.17-0.54
		c0.31,0,0.61,0.23,0.88,0.67c0.45,0.45,0.81,0.67,1.08,0.67c0.36,0,0.54,0.23,0.54,0.67c0,0.45-0.18,1.04-0.54,1.76
		c-0.27,0.54-0.41,1.04-0.41,1.48c0,0.18-0.13,0.54-0.4,1.08c-0.27,0.54-0.63,1.17-1.08,1.89c-1.26,2.07-2.39,4.12-3.38,6.14
		c-0.99,2.03-1.71,3.8-2.16,5.33c-0.27,0.72-0.77,1.96-1.48,3.71c-0.72,1.76-1.44,3.53-2.16,5.33c-1.26,3.15-2.14,5.31-2.63,6.48
		c-0.5,1.17-0.65,1.76-0.47,1.76c0.09,0,0.25-0.2,0.47-0.61c0.22-0.4,0.56-0.92,1.01-1.55c0.72-0.99,1.24-1.64,1.55-1.96
		c0.31-0.31,0.34-0.11,0.07,0.61c-0.09,0.36-0.27,0.68-0.54,0.95c-0.09,0.09-0.32,0.45-0.67,1.08c-0.36,0.63-0.79,1.35-1.28,2.16
		c-0.5,0.81-0.94,1.58-1.35,2.29c-0.4,0.72-0.7,1.26-0.88,1.62c-0.63,1.26-0.72,1.64-0.27,1.15c0.45-0.49,1.35-1.91,2.7-4.25
		c0.81-1.26,1.69-2.65,2.63-4.18c0.95-1.53,1.73-2.7,2.36-3.51c0.81-1.17,1.87-2.61,3.17-4.32c1.3-1.71,2.65-3.42,4.05-5.13
		c1.39-1.71,2.72-3.28,3.98-4.73c1.26-1.44,2.2-2.43,2.83-2.97c0.63-0.54,1.12-0.99,1.49-1.35c0.36-0.36,0.49-0.54,0.4-0.54
		c-0.09,0-0.34,0.13-0.74,0.4c-0.41,0.27-0.88,0.61-1.42,1.01s-1.06,0.83-1.55,1.28c-0.5,0.45-0.88,0.81-1.15,1.08
		c-0.63,0.63-1.44,1.53-2.43,2.7c-0.99,1.17-2.02,2.43-3.1,3.78c-1.08,1.35-2.12,2.68-3.1,3.98c-0.99,1.31-1.8,2.45-2.43,3.44
		c-0.72,1.26-1.35,2.14-1.89,2.63c-0.54,0.5-0.63,0.38-0.27-0.34c0.18-0.27,0.67-0.99,1.48-2.16c0.81-1.17,1.76-2.5,2.83-3.98
		c1.08-1.48,2.2-2.97,3.38-4.46c1.17-1.48,2.16-2.68,2.97-3.58c1.71-1.98,3.15-3.49,4.32-4.52c1.17-1.03,2.25-1.78,3.24-2.23
		c0.45-0.18,1.01-0.29,1.69-0.34c0.67-0.04,1.35,0,2.02,0.14c0.67,0.13,1.28,0.34,1.82,0.61c0.54,0.27,0.9,0.59,1.08,0.94
		c0.18,0.18,0.34,0.38,0.47,0.61c0.14,0.23,0.29,0.38,0.47,0.47c0.54,0.36,1.1,0.99,1.69,1.89c0.58,0.9,1.01,1.85,1.28,2.83
		c0.18,0.45,0.41,1.35,0.68,2.7c0.27,1.35,0.49,2.79,0.67,4.32c0.9,5.04,1.8,7.83,2.7,8.37c0.27,0.18,1.03,0.18,2.29,0
		c0.81-0.09,1.51-0.25,2.09-0.47c0.58-0.22,1.6-0.83,3.04-1.82c0.9-0.63,1.87-1.37,2.9-2.23C578.09,983.74,578.97,983,579.69,982.37
		z M516.91,1017.06c0.36-0.72,0.32-0.81-0.14-0.27c-0.36,0.36-0.54,0.67-0.54,0.95l0.14,0.13L516.91,1017.06z M525.01,994.92
		c0.18-0.27,0.43-0.74,0.74-1.42c0.31-0.67,0.63-1.35,0.94-2.03c0.31-0.67,0.56-1.28,0.74-1.82c0.18-0.54,0.27-0.85,0.27-0.95
		c0-0.09-0.23-0.13-0.67-0.13c-0.36,0-0.68,0.36-0.95,1.08c-0.09,0.18-0.13,0.32-0.13,0.41c0,0.09-0.05,0.18-0.14,0.27
		c0,0.09,0,0.18,0,0.27c0.18,0,0.09,0.27-0.27,0.81c-0.09,0.18-0.29,0.56-0.61,1.15c-0.32,0.59-0.61,1.21-0.88,1.89
		c-0.27,0.67-0.52,1.28-0.74,1.82c-0.23,0.54-0.34,0.9-0.34,1.08c0.09,0.09,0.22,0.05,0.41-0.14c0.18-0.09,0.27-0.04,0.27,0.14
		c-0.18,0.36-0.36,0.45-0.54,0.27c-0.18,0-0.36,0.13-0.54,0.41c-0.09,0.18-0.29,0.72-0.61,1.62c-0.32,0.9-0.7,1.85-1.15,2.83
		c-1.8,4.23-2.43,6.17-1.89,5.8c0.09-0.09,0.16-0.11,0.2-0.07c0.05,0.05,0.02,0.16-0.07,0.34c-0.18,0.27-0.36,0.4-0.54,0.4
		c-0.09-0.09-0.16-0.13-0.2-0.13c-0.04,0,0.02,0.09,0.2,0.27c0.18,0.18,0.2,0.52,0.07,1.01c-0.14,0.5-0.29,0.65-0.47,0.47
		c-0.18,0-0.18,0.13,0,0.41c0.18,0.36,0.05,0.54-0.41,0.54c-0.27,0-0.36,0.18-0.27,0.54c0.18,0.36,0.09,0.95-0.27,1.75
		c-0.72,1.53-0.68,1.71,0.13,0.54c0.18-0.27,0.52-1.01,1.01-2.23c0.5-1.21,1.01-2.59,1.55-4.12c0.54-1.53,1.03-2.83,1.48-3.92
		c0.45-1.08,0.72-1.71,0.81-1.89c0.18-0.18,0.34-0.52,0.47-1.01c0.13-0.49,0.29-0.97,0.47-1.42c0.18-0.54,0.34-1.03,0.47-1.49
		c0.14-0.45,0.29-0.67,0.47-0.67c0.18-0.36,0.27-0.67,0.27-0.94C524.34,996.23,524.56,995.64,525.01,994.92z M527.17,987.09
		c-0.36,0.54-0.5,0.86-0.4,0.95v0.13l0.54-0.81l0.27-0.54L527.17,987.09z M527.98,985.88c0-0.27-0.09-0.36-0.27-0.27
		c-0.18,0.18-0.27,0.36-0.27,0.54C527.53,986.6,527.71,986.51,527.98,985.88z"/>
	<path class="st0" d="M604.66,1016.39c0,0.18-0.56,0.86-1.69,2.02c-1.13,1.17-2.59,2.52-4.39,4.05c-0.72,0.63-1.64,1.35-2.77,2.16
		c-1.13,0.81-2.27,1.53-3.44,2.16c-1.17,0.63-2.23,1.17-3.17,1.62c-0.95,0.45-1.64,0.67-2.09,0.67h-2.02
		c-4.23,0.18-7.88-1.71-10.94-5.67c-0.45-0.63-0.85-1.17-1.21-1.62c-0.36-0.45-0.54-0.76-0.54-0.95c0-0.27,0.09-1.03,0.27-2.29
		c0.18-1.26,0.43-2.7,0.74-4.32c0.32-1.62,0.63-3.22,0.95-4.79c0.32-1.57,0.56-2.72,0.74-3.44c0.18-0.45,0.36-1.06,0.54-1.82
		c0.18-0.76,0.36-1.42,0.54-1.96c0.18-0.54,0.41-1.24,0.67-2.09c0.27-0.85,0.5-1.6,0.67-2.23c0.27-0.72,0.61-1.62,1.01-2.7
		s0.79-2.11,1.15-3.11c0.36-0.99,0.77-2.02,1.21-3.1s0.81-1.89,1.08-2.43c0.27-0.54,0.7-1.42,1.28-2.63
		c0.58-1.21,1.15-2.41,1.69-3.58c0.99-1.98,1.78-3.58,2.36-4.79c0.58-1.21,1.08-2.23,1.48-3.04c0.41-0.81,0.79-1.49,1.15-2.03
		c0.36-0.54,0.76-1.12,1.21-1.75c0.9-1.26,1.51-2.03,1.82-2.29c0.31-0.27,0.79-0.45,1.42-0.54c0.54-0.09,1.06-0.02,1.55,0.2
		c0.49,0.23,1.28,0.7,2.36,1.42l2.57,1.62l0.13,1.62c0,0.45-0.09,0.97-0.27,1.55c-0.18,0.59-0.36,1.1-0.54,1.55
		c-0.27,0.45-0.59,1.06-0.95,1.82c-0.36,0.77-0.72,1.46-1.08,2.09c-0.27,0.72-0.63,1.49-1.08,2.29c-0.45,0.81-0.81,1.44-1.08,1.89
		c-0.27,0.54-0.65,1.28-1.15,2.23c-0.5,0.95-0.97,1.82-1.42,2.63c-0.45,0.9-0.92,1.75-1.42,2.57c-0.5,0.81-0.83,1.44-1.01,1.89
		c-0.18,0.45-0.45,1.01-0.81,1.69c-0.36,0.67-0.67,1.33-0.95,1.96c-0.27,0.63-0.54,1.26-0.81,1.89c-0.27,0.63-0.5,1.04-0.68,1.21
		c-0.54,0.99-1.13,2.29-1.75,3.92c-0.63,1.62-1.24,3.31-1.82,5.06c-0.59,1.75-1.13,3.49-1.62,5.2c-0.5,1.71-0.83,3.2-1.01,4.46
		c-0.27,1.26-0.54,1.89-0.81,1.89c-0.45,0-0.67,0.18-0.67,0.54c0,0.18,0.13,0.23,0.41,0.14c0.36-0.18,0.58-0.09,0.67,0.27
		c0.09,0.36,0,0.72-0.27,1.08c-0.18,0.18-0.18,0.9,0,2.16l0.13,1.62l1.76-0.41c2.16-0.36,5.67-2.65,10.53-6.88
		c2.61-2.16,5.4-4.81,8.37-7.96c2.97-3.15,5.92-6.46,8.84-9.92c2.92-3.46,5.71-6.93,8.37-10.4c2.65-3.46,4.88-6.68,6.68-9.65
		c0.63-0.99,1.19-1.87,1.69-2.63c0.49-0.76,0.83-1.15,1.01-1.15c0.27,0,0.72-0.58,1.35-1.76c0.63-1.08,0.99-1.57,1.08-1.48
		c0.09,0.09,0.07,0.34-0.07,0.74c-0.14,0.41-0.34,0.86-0.61,1.35c-0.27,0.5-0.56,0.97-0.88,1.42c-0.32,0.45-0.56,0.67-0.74,0.67
		c-0.45,0-0.54,0.14-0.27,0.41c0.18,0.09,0.09,0.47-0.27,1.15c-0.36,0.67-0.81,1.42-1.35,2.23c-0.54,0.99-1.01,1.8-1.42,2.43
		c-0.41,0.63-0.61,0.99-0.61,1.08c0.09,0.18,0.31-0.04,0.67-0.67c0.18-0.27,0.36-0.56,0.54-0.88c0.18-0.31,0.36-0.56,0.54-0.74
		c0.09-0.18,0.29-0.52,0.61-1.01c0.31-0.49,0.65-1.06,1.01-1.69c0.81-1.35,1.37-2.23,1.69-2.63c0.31-0.41,0.56-0.43,0.74-0.07
		c0.09,0.27,0,0.63-0.27,1.08c-0.18,0.18-0.52,0.61-1.01,1.28c-0.5,0.67-0.97,1.42-1.42,2.23c-0.36,0.63-0.86,1.42-1.48,2.36
		c-0.63,0.95-1.26,1.89-1.89,2.83c-0.63,0.95-1.24,1.85-1.82,2.7c-0.59,0.86-1.06,1.55-1.42,2.09c-0.36,0.54-0.54,0.99-0.54,1.35
		c-0.09,0.45,0.18,0.36,0.81-0.27c0.45-0.54,1.1-1.37,1.96-2.5c0.85-1.12,1.69-2.29,2.5-3.51c0.81-1.21,1.51-2.27,2.09-3.17
		c0.58-0.9,0.83-1.39,0.74-1.49c-0.18-0.18-0.13-0.27,0.13-0.27c0.18,0.18,0.43-0.04,0.74-0.67c0.31-0.63,0.38-1.03,0.2-1.21
		c-0.18-0.27-0.05-0.63,0.41-1.08l0.54-0.95l0.13,1.35c0,0.54-0.11,1.17-0.34,1.89c-0.23,0.72-0.67,1.71-1.35,2.97
		c-0.67,1.26-1.67,2.95-2.97,5.06c-1.31,2.12-3.04,4.88-5.2,8.3c-0.54,0.9-1.06,1.73-1.55,2.5c-0.5,0.77-1.08,1.58-1.76,2.43
		c-0.67,0.86-1.51,1.89-2.5,3.1c-0.99,1.21-2.25,2.77-3.78,4.66c-1.44,1.8-2.72,3.31-3.85,4.52c-1.13,1.22-1.87,1.91-2.23,2.09
		C604.84,1015.67,604.66,1015.94,604.66,1016.39z M600.07,950.51c-0.36-0.18-0.47-0.45-0.34-0.81c0.13-0.36,0.56-1.3,1.28-2.83
		c0.54-0.99,1.33-2.25,2.36-3.78c1.03-1.53,2.16-3.06,3.38-4.59c1.21-1.53,2.41-2.99,3.58-4.39c1.17-1.39,2.2-2.5,3.1-3.31
		c1.71-1.53,2.86-2.34,3.44-2.43c0.58-0.09,1.19,0.54,1.82,1.89c0.63,1.17,0.81,1.98,0.54,2.43c-0.09,0.18-0.18,0.43-0.27,0.74
		c-0.09,0.32-0.13,0.61-0.13,0.88c0,0.27-0.2,0.74-0.61,1.42c-0.41,0.67-0.83,1.33-1.28,1.96c-1.44,1.89-2.66,3.67-3.64,5.33
		c-0.99,1.67-1.98,3.4-2.97,5.2c-1.26,2.52-2.25,4.25-2.97,5.2c-0.72,0.94-1.26,1.19-1.62,0.74c-0.09-0.09-0.29-0.13-0.61-0.13
		c-0.32,0-0.65,0-1.01,0c-0.9,0-1.67-0.36-2.3-1.08c-0.27-0.36-0.52-0.67-0.74-0.95c-0.23-0.27-0.34-0.49-0.34-0.67
		c-0.09-0.09-0.18-0.2-0.27-0.34C600.39,950.85,600.25,950.69,600.07,950.51z M618.16,993.84c-0.45-0.09-0.67,0-0.67,0.27
		c0,0.27,0.31,0.41,0.95,0.41c0.18-0.09,0.41-0.14,0.67-0.14c0-0.09,0.04-0.13,0.13-0.13c-0.09,0-0.23-0.04-0.4-0.13
		C618.66,994.02,618.43,993.93,618.16,993.84z"/>
	<path class="st0" d="M700.51,981.96c-0.36,0.45-0.79,0.99-1.28,1.62c-0.5,0.63-0.97,1.17-1.42,1.62c-0.45,0.63-1.62,1.96-3.51,3.98
		c-1.89,2.03-3.96,4.16-6.21,6.41c-2.25,2.25-4.37,4.37-6.34,6.34c-1.98,1.98-3.29,3.24-3.92,3.78c-3.51,2.88-7.16,5.49-10.94,7.83
		c-3.78,2.34-7.7,4.54-11.75,6.61c-0.72,0.45-1.78,0.9-3.17,1.35c-1.4,0.45-2.93,0.83-4.59,1.15c-1.67,0.32-3.33,0.59-4.99,0.81
		c-1.67,0.23-3.13,0.34-4.39,0.34c-1.44,0-2.43-0.13-2.97-0.41c-0.54-0.45-0.99-0.58-1.35-0.41c-0.45,0-1.15-0.31-2.09-0.94
		c-0.94-0.63-1.96-1.42-3.04-2.36c-1.08-0.94-2.12-1.93-3.11-2.97c-0.99-1.03-1.71-1.96-2.16-2.77c-0.63-1.08-1.35-1.71-2.16-1.89
		c-1.17-0.27-1.21-0.67-0.13-1.21c0.72-0.27,0.99-0.67,0.81-1.21c-1.26-4.59-0.36-10.3,2.7-17.15c1.89-4.05,4.07-7.87,6.55-11.47
		c2.47-3.6,5.2-7.06,8.17-10.4c1.53-1.8,2.9-3.28,4.12-4.46c1.21-1.17,2.14-1.8,2.77-1.89c0.36-0.18,0.85-0.25,1.49-0.2
		c0.63,0.05,1.26,0.16,1.89,0.34c0.63,0.18,1.33,0.34,2.09,0.47c0.76,0.13,1.37,0.25,1.82,0.34c1.62,0.45,3.06,1.04,4.32,1.75
		c1.26,0.72,2.65,1.85,4.18,3.38c1.98,1.89,3.31,3.53,3.98,4.93c0.68,1.4,0.92,2.9,0.74,4.52c-0.27,3.6-1.69,7.07-4.25,10.39
		c-2.56,3.33-5.65,6.41-9.25,9.25c-3.6,2.83-7.36,5.36-11.27,7.56c-3.92,2.21-7.4,3.94-10.46,5.2c-0.72,0.36-1.33,0.67-1.82,0.95
		c-0.5,0.27-0.74,0.45-0.74,0.54c0,0.72,0.65,1.31,1.96,1.75c1.3,0.45,2.77,0.67,4.39,0.67c2.25,0,4.59-0.27,7.02-0.81
		c2.43-0.54,4.81-1.28,7.16-2.23c2.34-0.95,4.63-2,6.88-3.17c2.25-1.17,4.32-2.34,6.21-3.51c0.9-0.54,1.71-1.01,2.43-1.42
		c0.72-0.4,1.17-0.61,1.35-0.61c0.45,0,1.03-0.29,1.75-0.88c0.72-0.58,1.08-1.01,1.08-1.28c0-0.18,0.36-0.58,1.08-1.21
		c0.72-0.63,1.57-1.3,2.56-2.02c0.72-0.54,0.81-0.49,0.27,0.13c-0.45,0.45-0.54,0.67-0.27,0.67c0.09,0,1.39-0.99,3.92-2.97
		c0.99-0.9,2.05-1.82,3.17-2.77c1.12-0.95,2.05-1.69,2.77-2.23c1.35-1.08,2.92-2.45,4.72-4.12c1.8-1.67,3.33-3.13,4.59-4.39
		c0.45-0.54,1.15-1.3,2.09-2.29c0.95-0.99,1.87-1.98,2.77-2.97c0.99-0.99,2-2.02,3.04-3.1c1.03-1.08,1.82-1.93,2.36-2.57
		c4.05-4.5,6.25-6.75,6.62-6.75c0.09,0.09-0.11,0.47-0.61,1.15c-0.5,0.68-1.15,1.51-1.96,2.5c-1.17,1.53-1.8,2.34-1.89,2.43
		c-0.09,0.09,0.36-0.36,1.35-1.35c1.35-1.35,2.16-2.03,2.43-2.03c0.27,0,0.14,0.41-0.4,1.21c-0.45,0.45-0.68,0.99-0.68,1.62
		c0,0.45,0.18,0.5,0.54,0.13c0.18-0.18,0.31-0.27,0.41-0.27c0-0.09,0.04-0.13,0.13-0.13c0.27,0-0.4,0.94-2.02,2.83
		c-0.54,0.63-1.1,1.37-1.69,2.23c-0.59,0.86-1.06,1.6-1.42,2.23c-0.27,0.63-0.63,1.31-1.08,2.02
		C701.41,980.93,700.96,981.51,700.51,981.96z M632.88,996.68c-0.45,0.99-0.92,2-1.42,3.04c-0.5,1.04-0.95,2.03-1.35,2.97
		c-0.41,0.95-0.72,1.75-0.95,2.43c-0.23,0.67-0.34,1.15-0.34,1.42c0.18,0,0.92-0.45,2.23-1.35c1.3-0.9,2.75-1.89,4.32-2.97
		c1.57-1.08,3.06-2.14,4.46-3.17c1.39-1.03,2.23-1.69,2.5-1.96c0-0.09,0.31-0.38,0.95-0.88c0.63-0.49,1.35-1.06,2.16-1.69
		c0.81-0.72,1.75-1.6,2.83-2.63c1.08-1.03,2.16-2.11,3.24-3.24c1.08-1.12,2.07-2.18,2.97-3.17c0.9-0.99,1.57-1.8,2.03-2.43
		c0.81-1.17,1.53-2.74,2.16-4.72c0.63-1.98,0.85-3.46,0.68-4.46c-0.18-1.17-0.72-1.98-1.62-2.43c-0.9-0.45-1.89-0.68-2.97-0.68
		c-1.08,0-2.3,0.52-3.65,1.55c-1.35,1.04-2.77,2.36-4.25,3.98c-1.48,1.62-2.95,3.42-4.39,5.4c-1.44,1.98-2.81,3.94-4.12,5.87
		c-1.31,1.94-2.43,3.71-3.38,5.33C634.03,994.52,633.33,995.78,632.88,996.68z M687.96,993.44c0.81-0.9,1.12-1.35,0.94-1.35
		c-0.18,0-1.26,1.13-3.24,3.38c-2.16,2.43-2.48,2.88-0.94,1.35c0.63-0.54,1.24-1.12,1.82-1.75
		C687.12,994.43,687.6,993.89,687.96,993.44z"/>
	<path class="st0" d="M789.34,918.38c-0.54,0.9-1.01,1.69-1.42,2.36c-0.4,0.67-0.88,1.48-1.42,2.43s-1.21,2.14-2.03,3.58
		c-0.81,1.44-1.89,3.47-3.24,6.08c-1.08,1.89-2.32,4.21-3.71,6.95c-1.4,2.75-2.79,5.54-4.19,8.37c-1.4,2.83-2.75,5.58-4.05,8.24
		c-1.31,2.66-2.36,4.93-3.17,6.82c-0.72,1.35-1.51,2.97-2.36,4.86c-0.86,1.89-1.6,3.51-2.23,4.86c-0.72,1.26-1.31,2.39-1.75,3.38
		c-0.45,0.99-0.63,1.58-0.54,1.75c0,0.27-0.13,0.41-0.4,0.41c-0.09,0.09-0.29,0.54-0.61,1.35c-0.32,0.81-0.65,1.8-1.01,2.97
		c-0.45,1.08-0.97,2.39-1.55,3.92c-0.59,1.53-1.1,2.83-1.55,3.92c-1.71,4.05-3.53,8.55-5.47,13.5c-1.94,4.95-3.76,9.85-5.47,14.71
		c-1.71,4.86-3.26,9.43-4.66,13.7c-1.4,4.28-2.45,7.76-3.17,10.46c-0.63,2.7-1.17,5-1.62,6.88c-0.45,1.89-0.77,3.56-0.95,5
		c-0.18,1.44-0.27,2.72-0.27,3.85c0,1.13,0.04,2.23,0.13,3.31l0.41,3.64l2.02,1.49c1.17,0.9,1.87,1.55,2.09,1.96
		c0.22,0.41-0.02,0.74-0.74,1.01c-0.63,0.27-1.08,0.41-1.35,0.41c-0.27,0-0.72-0.13-1.35-0.41c-0.63-0.27-1.17-0.41-1.62-0.41
		c-0.54,0.09-1.21-0.13-2.03-0.67c-0.81-0.54-1.67-1.21-2.56-2.02c-0.9-0.81-1.75-1.71-2.57-2.7c-0.81-0.99-1.44-1.94-1.89-2.83
		c-0.81-1.71-1.19-4.16-1.15-7.36c0.04-3.19,0.56-6.82,1.55-10.87c0.45-1.8,1.12-4.12,2.02-6.95c0.9-2.83,1.91-5.96,3.04-9.38
		c1.12-3.42,2.34-6.95,3.64-10.6c1.3-3.64,2.61-7.22,3.92-10.73c1.3-3.51,2.57-6.82,3.78-9.92c1.21-3.11,2.32-5.74,3.31-7.9
		c0.54-1.17,1.17-2.63,1.89-4.39c0.72-1.75,1.35-3.26,1.89-4.52c0.72-1.62,1.39-3.22,2.03-4.79c0.63-1.57,1.21-3.01,1.75-4.32
		c0.54-1.3,1.01-2.43,1.42-3.38c0.4-0.95,0.7-1.6,0.88-1.96c0.18-0.27,0.34-0.56,0.47-0.88c0.13-0.31,0.29-0.56,0.47-0.74
		c0.27-0.72-3.47,4.32-11.21,15.12c-1.98,2.88-3.6,5.2-4.86,6.95c-1.26,1.75-2.34,3.26-3.24,4.52c-0.9,1.26-1.69,2.41-2.36,3.44
		c-0.67,1.04-1.46,2.23-2.36,3.58c-0.9,1.35-1.98,2.93-3.24,4.72c-1.26,1.8-2.29,3.33-3.1,4.59c-1.08,1.62-2.12,3.15-3.11,4.59
		c-0.99,1.44-1.85,2.72-2.56,3.85c-0.72,1.13-1.28,2.05-1.69,2.77c-0.41,0.72-0.61,1.17-0.61,1.35c0,0.18-0.25,0.65-0.74,1.42
		c-0.5,0.77-1.1,1.64-1.82,2.63c-0.72,0.99-1.33,1.87-1.82,2.63c-0.5,0.77-0.74,1.19-0.74,1.28c0,0.27-0.2,0.7-0.61,1.28
		c-0.41,0.59-0.9,1.22-1.49,1.89c-0.59,0.67-1.26,1.37-2.03,2.09c-0.77,0.72-1.46,1.31-2.09,1.76c-1.62,1.26-3.15,2.18-4.59,2.77
		c-1.44,0.59-2.97,0.97-4.59,1.15c-1.08,0.18-1.91,0.23-2.5,0.13c-0.58-0.09-1.37-0.36-2.36-0.81c-2.16-0.9-4.12-2.27-5.87-4.12
		c-1.75-1.84-2.72-3.62-2.9-5.33c-0.27-2.25,0.72-6.21,2.97-11.88c0.63-1.8,1.17-3.24,1.62-4.32c0.45-1.08,0.81-1.93,1.08-2.57
		c0.27-0.63,0.5-1.1,0.67-1.42c0.18-0.31,0.41-0.61,0.67-0.88c0.18-0.27,0.45-0.76,0.81-1.49c0.36-0.72,0.72-1.48,1.08-2.29
		c0.27-0.9,0.74-2.02,1.42-3.38c0.68-1.35,1.33-2.56,1.96-3.64c0.63-1.08,1.24-2.2,1.82-3.38c0.58-1.17,0.97-2.07,1.15-2.7
		c0.27-0.54,0.95-1.62,2.03-3.24s2.32-3.38,3.71-5.26c1.39-1.89,2.77-3.67,4.12-5.33c1.35-1.66,2.34-2.81,2.97-3.44
		c0.36-0.36,0.95-0.79,1.75-1.28c0.81-0.49,1.62-0.92,2.43-1.28c1.53-0.54,2.54-0.85,3.04-0.95c0.49-0.09,1.33-0.04,2.5,0.13
		c1.62,0.18,3.04,0.59,4.25,1.22c1.21,0.63,2.9,1.85,5.06,3.64c2.16,1.89,3.46,3.33,3.92,4.32l0.67,1.62l1.62-2.16
		c0.45-0.63,1.12-1.6,2.02-2.9c0.9-1.3,1.84-2.59,2.83-3.85c0.9-1.26,1.69-2.34,2.36-3.24c0.67-0.9,1.06-1.35,1.15-1.35
		c0.09,0.09,0.31-0.09,0.67-0.54c0.36-0.45,0.76-1.03,1.21-1.76c1.8-2.61,3.8-5.49,6.01-8.64c2.2-3.15,4.32-6.08,6.34-8.77
		c2.03-2.7,3.76-4.95,5.2-6.75c1.44-1.8,2.29-2.7,2.57-2.7c0.36-0.09,0.54-0.07,0.54,0.07s-0.18,0.47-0.54,1.01
		c-0.18,0.36-1.15,1.78-2.9,4.25c-1.75,2.48-3.8,5.29-6.14,8.44c-1.08,1.62-2.21,3.24-3.38,4.86c-1.17,1.62-2.27,3.15-3.31,4.59
		c-1.04,1.44-1.96,2.75-2.77,3.92c-0.81,1.17-1.44,2.07-1.89,2.7c-0.9,1.26-1.76,2.45-2.57,3.58c-0.81,1.13-1.35,1.91-1.62,2.36
		c-1.8,2.16-3.29,4.19-4.46,6.08c-1.17,1.89-1.75,3.2-1.75,3.92v1.35l1.49-2.02c0.45-0.63,1.12-1.6,2.02-2.9
		c0.9-1.3,1.8-2.59,2.7-3.85c0.45-0.63,1.03-1.46,1.75-2.5c0.72-1.03,1.51-2.18,2.36-3.44c0.85-1.26,1.76-2.56,2.7-3.92
		c0.95-1.35,1.87-2.61,2.77-3.78c3.06-4.32,5.04-7.18,5.94-8.57c0.9-1.39,0.9-1.69,0-0.88c-0.27,0.36-0.43,0.54-0.47,0.54
		c-0.05,0,0.02-0.18,0.2-0.54c0.45-0.45,0.72-0.67,0.81-0.67c0.18,0,0.54-0.31,1.08-0.95c0.54-0.63,1.17-1.39,1.89-2.29
		c0.63-0.72,1.19-1.46,1.69-2.23c0.49-0.76,1.06-1.66,1.69-2.7c0.63-1.03,1.3-2.27,2.03-3.71c0.72-1.44,1.57-3.15,2.56-5.13
		c0.45-0.9,0.95-1.89,1.49-2.97s1.03-1.93,1.48-2.56c0.36-0.72,0.63-1.33,0.81-1.82c0.18-0.49,0.22-0.83,0.13-1.01
		c-0.18-0.36,0.13-0.85,0.95-1.49c0.27-0.36,0.79-1.12,1.55-2.29c0.76-1.17,1.55-2.38,2.36-3.65c0.72-1.35,1.55-2.79,2.5-4.32
		c0.95-1.53,1.64-2.7,2.09-3.51c0.54-0.81,1.19-1.82,1.96-3.04c0.76-1.21,1.46-2.27,2.09-3.17c0.63-0.99,1.17-1.82,1.62-2.5
		c0.45-0.67,0.76-1.01,0.95-1.01c0.18,0,0.58-0.41,1.21-1.21c0.63-0.81,1.35-1.8,2.16-2.97c0.18-0.18,0.31-0.36,0.4-0.54
		c0.09-0.18,0.18-0.36,0.27-0.54c1.53,0.18,2.97,0.72,4.32,1.62c0.99,0.63,1.66,1.48,2.02,2.56c0.36,1.08,0.54,2.21,0.54,3.38
		c-0.27,0.36-0.52,0.67-0.74,0.95c-0.23,0.27-0.43,0.54-0.61,0.81c-0.09,0.18-0.45,0.74-1.08,1.69c-0.63,0.95-1.31,2-2.03,3.17
		c-0.72,1.17-1.35,2.21-1.89,3.1c-0.54,0.9-0.77,1.44-0.67,1.62c0,0.18-0.2,0.63-0.61,1.35
		C790.49,916.53,789.97,917.39,789.34,918.38z M723.33,998.3c2.43-3.51,3.94-5.74,4.52-6.68c0.58-0.95,0.79-1.37,0.61-1.28
		c-0.18,0-0.86,0.72-2.03,2.16c-1.17,1.44-2.52,3.33-4.05,5.67c-0.45,0.63-0.83,1.1-1.15,1.42c-0.32,0.32-0.52,0.38-0.61,0.2
		c0-0.36,0.22-0.72,0.67-1.08c0.54-0.54,0.9-1.08,1.08-1.62c0.09-0.27,0.2-0.61,0.34-1.01c0.14-0.4,0.29-0.83,0.47-1.28
		c0.18-0.36,0.36-0.7,0.54-1.01c0.18-0.31,0.27-0.56,0.27-0.74c0.18-0.27,0.4-0.49,0.67-0.67c0.27,0,0.31,0.18,0.13,0.54
		c-0.18,0.27,0.18-0.09,1.08-1.08c0.72-0.9,1.1-1.42,1.15-1.55c0.04-0.13-0.2-0.11-0.74,0.07c-0.36,0.18-0.61,0.18-0.74,0
		c-0.13-0.18-0.02-0.4,0.34-0.67c0.27-0.27,0.36-0.58,0.27-0.95c-0.09-0.36-0.32-0.45-0.67-0.27c-0.36,0.18-0.54,0.2-0.54,0.07
		s0.14-0.61,0.41-1.42c0.36-0.99,0.54-2.43,0.54-4.32c0-1.89-0.18-3.55-0.54-5c-0.27-1.26-0.47-1.98-0.61-2.16
		c-0.13-0.18-0.47-0.27-1.01-0.27c-0.99,0.18-2.18,0.92-3.58,2.23c-1.4,1.31-3.31,3.53-5.74,6.68c-1.08,1.35-2.05,2.61-2.9,3.78
		c-0.86,1.17-1.73,2.43-2.63,3.78c-0.9,1.35-1.89,2.93-2.97,4.72c-1.08,1.8-2.39,4.01-3.92,6.62c-1.17,1.98-2.38,4.23-3.64,6.75
		c-1.26,2.52-2.41,5.02-3.44,7.49c-1.03,2.48-1.91,4.77-2.63,6.89c-0.72,2.12-1.17,3.85-1.35,5.2l-0.27,2.16l1.75-0.41
		c0.45-0.18,0.97-0.41,1.55-0.67c0.59-0.27,0.97-0.49,1.15-0.67c0.27-0.27,0.7-0.65,1.28-1.15c0.58-0.49,1.15-0.97,1.69-1.42
		c1.26-1.08,2.77-2.61,4.52-4.59c1.75-1.98,4.07-4.86,6.95-8.64c1.26-1.53,2.34-2.86,3.24-3.98c0.9-1.12,1.44-1.73,1.62-1.82
		c0.18,0,0.27-0.22,0.27-0.67c0-0.63,0.22-1.17,0.67-1.62c0.36-0.45,0.58-0.63,0.67-0.54c0.09,0.09,0,0.5-0.27,1.21l-0.27,0.67
		l0.54-0.4c0.36-0.36,0.54-0.52,0.54-0.47c0,0.05-0.09,0.29-0.27,0.74c-0.27,0.72-0.54,1.21-0.81,1.49c-0.36,0.36-0.36,0.45,0,0.27
		c0.18,0,0.52-0.31,1.01-0.94c0.49-0.63,1.06-1.39,1.69-2.29c0.54-0.9,1.3-2.07,2.29-3.51
		C721.48,1000.77,722.43,999.47,723.33,998.3z M719.55,1001.13c0.36-0.63,0.63-0.81,0.81-0.54c0,0.09-0.16,0.43-0.47,1.01
		c-0.32,0.59-0.67,1.21-1.08,1.89c-0.4,0.67-0.79,1.26-1.15,1.75c-0.36,0.5-0.63,0.74-0.81,0.74c-0.18,0-0.18-0.45,0-1.35
		c0.36-1.62,0.85-2.47,1.49-2.57C718.87,1002.08,719.28,1001.76,719.55,1001.13z M726.57,1048.92c0.18-0.72,0.41-1.46,0.67-2.23
		c0.27-0.76,0.49-1.28,0.68-1.55c0.18-0.27,0.54-1.17,1.08-2.7c0.54-1.53,1.12-3.33,1.76-5.4c0.54-1.98,1.24-4.27,2.09-6.88
		c0.85-2.61,1.6-4.81,2.23-6.62c0.63-1.8,1.12-3.33,1.49-4.59c0.36-1.26,0.49-1.93,0.41-2.02c-0.27-0.09-0.34-0.34-0.2-0.74
		c0.14-0.41,0.38-0.65,0.74-0.74c0.18,0,0.56-0.72,1.15-2.16c0.58-1.44,1.24-3.19,1.96-5.26c0.72-2.07,1.33-3.76,1.82-5.06
		c0.49-1.3,0.65-1.87,0.47-1.69c-0.18,0.36-0.5,0.54-0.94,0.54c-0.45-0.18-0.54-0.04-0.27,0.4c0,0.18-0.05,0.41-0.13,0.68
		c-0.09,0.27-0.23,0.5-0.41,0.67c-0.18,0.27-0.36,0.63-0.54,1.08c-0.18,0.45-0.32,0.86-0.41,1.21c-0.27,0.81-0.59,1.44-0.94,1.89
		c-0.36,0.27-0.54,0.63-0.54,1.08c0,0.45-0.13,1.17-0.41,2.16c-0.18,0.72-0.32,1.13-0.41,1.21c-0.09,0.09-0.23-0.04-0.4-0.41
		c-0.18-0.27-0.52,0.18-1.01,1.35c-0.5,1.17-1.37,3.56-2.63,7.16c-0.9,2.61-1.64,4.82-2.23,6.61c-0.59,1.8-0.88,2.79-0.88,2.97
		c0.09,0.09,0.27-0.22,0.54-0.95c0.36-0.81,0.58-1.17,0.67-1.08c0.09,0.09,0.04,0.5-0.13,1.21c-0.18,0.72-0.45,1.58-0.81,2.57
		c-1.62,5.13-2.95,9.81-3.98,14.04c-1.04,4.23-1.55,7.2-1.55,8.91v1.89l0.27-2.29c0.09-0.63,0.2-1.46,0.34-2.5
		C726.23,1050.66,726.38,1049.73,726.57,1048.92z M727.65,1039.34c-0.09,0.27-0.18,0.54-0.27,0.81c-0.09,0.27-0.14,0.5-0.14,0.67
		c0.09,0.09,0.27-0.13,0.54-0.67c0.27-0.72,0.41-1.21,0.41-1.49C728.19,1038.21,728,1038.44,727.65,1039.34z M728.32,1037.45
		c-0.09,0.45,0,0.54,0.27,0.27c0.18-0.45,0.22-0.72,0.13-0.81C728.46,1036.64,728.32,1036.82,728.32,1037.45z M776.52,937.01
		c0.9-1.53,1.73-3.06,2.5-4.59c0.76-1.53,1.24-2.56,1.42-3.1c0.27-0.45,0.52-0.97,0.74-1.55c0.22-0.58,0.43-1.06,0.61-1.42
		c0.18-0.45,0.22-0.63,0.14-0.54c-0.09,0.09-0.27,0.34-0.54,0.74c-0.27,0.41-0.56,0.9-0.88,1.48c-0.32,0.59-0.61,1.15-0.88,1.69
		c-0.18,0.45-0.52,1.1-1.01,1.96c-0.5,0.86-0.97,1.64-1.42,2.36c-0.45,0.72-1.13,1.96-2.02,3.71c-0.9,1.75-1.8,3.49-2.7,5.2
		c-0.9,1.8-1.71,3.4-2.43,4.79c-0.72,1.4-1.17,2.18-1.35,2.36c-0.18,0.27-0.43,0.79-0.74,1.55c-0.32,0.77-0.65,1.55-1.01,2.36
		c-0.27,0.72-0.61,1.51-1.01,2.36c-0.41,0.86-0.74,1.46-1.01,1.82c-0.27,0.45-0.52,0.92-0.74,1.42c-0.23,0.5-0.43,0.92-0.61,1.28
		c-0.63,1.8-1.21,2.79-1.75,2.97c-0.18,0,0.09-0.76,0.81-2.29c0.27-0.54,0.58-1.24,0.95-2.09c0.36-0.85,0.67-1.6,0.95-2.23
		c0.27-0.63,0.52-1.24,0.74-1.82c0.22-0.58,0.43-1.01,0.61-1.28c0.18-0.18,0.36-0.47,0.54-0.88c0.18-0.4,0.36-0.74,0.54-1.01
		c0.36-0.9,0.67-1.62,0.95-2.16c0.36-0.72,0.36-0.99,0-0.81c-0.36,0-0.54,0.27-0.54,0.81c-0.18,0.63-0.36,0.94-0.54,0.94
		c-0.09,0-0.27,0.23-0.54,0.68c-0.27,0.45-0.54,1.04-0.81,1.75c-0.27,0.72-0.7,1.73-1.28,3.04c-0.59,1.31-1.15,2.59-1.69,3.85
		c-2.25,4.68-2.66,6.21-1.21,4.59c0.54-0.63,0.79-0.76,0.74-0.41c-0.05,0.36-0.38,1.04-1.01,2.03c-0.27,0.45-0.59,1.06-0.94,1.82
		c-0.36,0.77-0.68,1.51-0.95,2.23c-0.27,0.63-0.52,1.17-0.74,1.62c-0.23,0.45-0.38,0.67-0.47,0.67c-0.18,0-0.2-0.25-0.07-0.74
		c0.13-0.49,0.52-1.37,1.15-2.63c0.63-1.17,1.03-2.14,1.21-2.9c0.18-0.76,0.04-0.88-0.41-0.34c-0.09,0.18-0.5,1.1-1.21,2.77
		c-0.72,1.67-1.6,3.69-2.63,6.08c-1.04,2.39-2.12,4.95-3.24,7.7c-1.13,2.75-2.21,5.31-3.24,7.7c-1.04,2.39-1.89,4.41-2.57,6.07
		c-0.67,1.67-1.01,2.63-1.01,2.9c-0.18,0.72-0.16,0.99,0.07,0.81c0.22-0.18,0.52-0.76,0.88-1.75c0.36-1.17,0.63-1.66,0.81-1.49
		c0.09,0.09,0.11,0.32,0.07,0.67c-0.05,0.36-0.14,0.79-0.27,1.28c-0.13,0.5-0.29,0.97-0.47,1.42c-0.18,0.45-0.36,0.81-0.54,1.08
		c-0.27,0.27-0.4,0.59-0.4,0.95c0,0.45-0.27,1.08-0.81,1.89c-0.18,0.36-0.36,0.72-0.54,1.08c-0.18,0.36-0.23,0.63-0.13,0.81
		c0,0.18-0.09,0.43-0.27,0.74c-0.18,0.32-0.36,0.7-0.54,1.15c-0.54,0.81-0.81,1.49-0.81,2.03c0,0.18-0.11,0.61-0.34,1.28
		c-0.23,0.67-0.47,1.35-0.74,2.02c-0.27,0.68-0.54,1.26-0.81,1.76c-0.27,0.5-0.45,0.7-0.54,0.61c-0.09-0.18,0.04-0.81,0.41-1.89
		c0.36-1.08,0.81-2.34,1.35-3.78c0.54-1.44,1.03-2.75,1.49-3.92c0.45-1.17,0.67-1.89,0.67-2.16c0.09-0.72,0.04-0.9-0.13-0.54
		c-0.18,0.36-0.59,1.35-1.22,2.97c-0.63,1.62-1.51,4.01-2.63,7.16c-1.13,3.15-2.59,7.2-4.39,12.15c-1.17,3.33-2.25,6.66-3.24,9.99
		c-0.99,3.33-1.82,6.44-2.5,9.32c-0.67,2.88-1.15,5.45-1.42,7.69c-0.27,2.25-0.36,3.92-0.27,5c0.09,0.99,0.2,1.35,0.34,1.08
		c0.14-0.27,0.2-0.99,0.2-2.16c0-0.9,0.09-2.07,0.27-3.51c0.18-1.44,0.41-2.88,0.67-4.32c0.27-1.44,0.56-2.68,0.88-3.71
		c0.31-1.03,0.56-1.55,0.74-1.55c0.36,0,0.45,0.18,0.27,0.54c-0.72,2.97-1.26,5.45-1.62,7.42c-0.36,1.98-0.41,2.93-0.13,2.83
		c0.09,0,0.31-0.72,0.67-2.16c0.09-0.54,0.18-1.01,0.27-1.42c0.09-0.41,0.2-0.85,0.34-1.35c0.13-0.49,0.29-1.08,0.47-1.75
		c0.18-0.67,0.45-1.55,0.81-2.63c0.18-0.63,0.38-1.39,0.61-2.29c0.22-0.9,0.38-1.71,0.47-2.43c0.09-0.36,0.38-1.35,0.88-2.97
		c0.49-1.62,1.15-3.58,1.96-5.87c0.81-2.3,1.66-4.75,2.57-7.36c0.9-2.61,1.78-5.08,2.63-7.42c0.85-2.34,1.62-4.41,2.29-6.21
		c0.68-1.8,1.15-3.01,1.42-3.64c0.18-0.45,0.36-0.85,0.54-1.21c0.18-0.36,0.27-0.58,0.27-0.68c0-0.09,0.27-0.83,0.81-2.23
		c0.54-1.39,1.15-2.95,1.82-4.66c0.67-1.71,1.3-3.31,1.89-4.79c0.58-1.49,0.92-2.32,1.01-2.5c0.09-0.18,0.38-0.9,0.88-2.16
		c0.49-1.26,1.1-2.74,1.82-4.46c0.72-1.71,1.35-3.24,1.89-4.59c0.54-1.35,0.85-2.11,0.95-2.29c0.09-0.18,0.34-0.72,0.74-1.62
		c0.41-0.9,0.88-1.93,1.42-3.1c1.8-4.05,3.33-7.49,4.59-10.33c1.26-2.83,2.2-4.84,2.83-6.01c0.36-0.72,0.9-1.87,1.62-3.44
		c0.72-1.57,1.44-3.13,2.16-4.66c0.72-1.53,1.64-3.4,2.77-5.6C774.74,940.41,775.71,938.54,776.52,937.01z M729.54,1033.4
		c-0.18,0.36-0.27,0.72-0.27,1.08c0.09,0.09,0.22,0,0.41-0.27c0.18-0.54,0.27-0.9,0.27-1.08
		C729.94,1032.86,729.81,1032.95,729.54,1033.4z M730.08,1031.91c-0.09,0.45,0,0.54,0.27,0.27c0.18-0.45,0.22-0.72,0.13-0.81
		C730.21,1031.1,730.08,1031.28,730.08,1031.91z M735.21,1018.41c-0.09,0,0.18-0.85,0.81-2.56c0.63-1.8,1.08-2.52,1.35-2.16
		c0.09,0.18,0.18,0.34,0.27,0.47c0.09,0.13,0.13,0.29,0.13,0.47c0,0.18-0.13,0.14-0.41-0.13c-0.18-0.36-0.59,0.18-1.21,1.62
		c-0.18,0.63-0.36,1.17-0.54,1.62C735.43,1018.19,735.29,1018.41,735.21,1018.41z M738.85,975.89c0.54-0.81,1.03-1.51,1.49-2.09
		c0.45-0.58,0.72-0.83,0.81-0.74c0.09,0.09-0.07,0.43-0.47,1.01c-0.4,0.59-0.92,1.24-1.55,1.96l-2.16,2.83L738.85,975.89z
		 M738.04,1022.6c0.18-0.09,0.29,0,0.34,0.27c0.04,0.27-0.07,0.5-0.34,0.67c-0.18,0.18-0.27,0.54-0.27,1.08
		c0.18,0.54,0.09,0.81-0.27,0.81h-0.27h-0.13c-0.09-0.36,0-0.92,0.27-1.69C737.64,1022.98,737.86,1022.6,738.04,1022.6z
		 M739.8,1017.87c0.54-0.18,0.54,0.32,0,1.49c-0.45,0.72-0.77,1.06-0.95,1.01c-0.18-0.04-0.13-0.43,0.13-1.15
		C739.26,1018.32,739.53,1017.87,739.8,1017.87z M741.55,969.41l0.81-1.35c0.54-0.81,0.81-1.39,0.81-1.75
		c0-0.18-0.05-0.22-0.14-0.14c-0.09,0.09-0.36,0.63-0.81,1.62L741.55,969.41z M742.09,998.84c-0.36,0.45-0.5,0.79-0.41,1.01
		c0.09,0.23,0.36,0.25,0.81,0.07c0.54-0.18,0.81-0.18,0.81,0c0.09,0.45,0.22,0.5,0.41,0.14c0.18-0.36,0.54-1.22,1.08-2.57
		c1.17-3.06,1.12-4.23-0.14-3.51c-0.36,0.09-0.5,0-0.4-0.27c0.18-0.36,0.45-0.54,0.81-0.54c0.36,0,0.45-0.36,0.27-1.08
		c0-0.45-0.07-0.61-0.2-0.47c-0.13,0.13-0.43,0.7-0.88,1.69c-0.63,1.26-0.99,2.07-1.08,2.43c-0.09,0.36,0.09,0.45,0.54,0.27
		c0.27-0.18,0.13-0.04-0.41,0.41c-0.45,0.63-0.67,1.08-0.67,1.35C742.63,998.12,742.45,998.48,742.09,998.84z M742.09,971.3
		c0.18-0.54,0.47-1.03,0.88-1.48c0.41-0.45,0.61-0.54,0.61-0.27c0,0.27-0.27,0.77-0.81,1.49
		C742.04,971.93,741.82,972.02,742.09,971.3z M742.77,992.9c-0.18,0.18-0.27,0.41-0.27,0.67c0.18,0.72,0.36,0.59,0.54-0.41
		C743.04,992.81,742.95,992.72,742.77,992.9z M743.98,997.76c-0.09,0,0.09-0.54,0.54-1.62c0.18-0.27,0.29-0.49,0.34-0.68
		c0.04-0.18,0.11-0.36,0.2-0.54c0.09-0.09,0.18-0.22,0.27-0.4c0.09,0,0.07,0.18-0.07,0.54c-0.13,0.36-0.27,0.74-0.4,1.15
		c-0.14,0.4-0.29,0.77-0.47,1.08C744.21,997.6,744.07,997.76,743.98,997.76z M745.47,1001.67c0-0.27-0.13-0.31-0.41-0.13
		c-0.18,0.18-0.27,0.41-0.27,0.67c0,0.36,0.13,0.41,0.4,0.14C745.38,1001.99,745.47,1001.76,745.47,1001.67z M748.17,986.96
		c-0.27-0.18-0.59,0.16-0.95,1.01c-0.36,0.86-0.5,1.64-0.41,2.36c0,0.45,0.02,0.77,0.07,0.95c0.04,0.18,0.16,0.11,0.34-0.2
		c0.18-0.31,0.47-0.97,0.88-1.96c0.41-0.99,1.01-2.43,1.82-4.32c0.99-2.43,1.78-4.3,2.36-5.6c0.58-1.3,0.99-2.27,1.21-2.9
		c0.22-0.63,0.34-0.99,0.34-1.08c0-0.09-0.05-0.09-0.14,0c-0.72,0.63-0.59-0.22,0.41-2.56c0.54-1.35,0.79-2.09,0.74-2.23
		c-0.05-0.13-0.38,0.38-1.01,1.55c-0.45,0.99-0.81,1.91-1.08,2.77c-0.27,0.86-0.23,1.19,0.13,1.01c0.09-0.18,0.18-0.25,0.27-0.2
		c0.09,0.05,0.14,0.11,0.14,0.2c0,0.09-0.18,0.56-0.54,1.42c-0.36,0.86-0.77,1.73-1.21,2.63c-0.45,0.9-0.88,1.69-1.28,2.36
		c-0.4,0.67-0.61,0.97-0.61,0.88c0-0.45,0.13-0.72,0.41-0.81c0.18-0.36,0.27-0.63,0.27-0.81c0-0.45-0.18-0.31-0.54,0.41
		c-0.36,0.54-0.45,1.04-0.27,1.49c0.27,0.54,0.2,1.1-0.2,1.69c-0.41,0.59-0.79,0.74-1.15,0.47c-0.45-0.27-0.63-0.27-0.54,0
		c0,0.18,0.13,0.4,0.4,0.67c0.18,0,0.36,0.18,0.54,0.54C748.57,986.87,748.44,986.96,748.17,986.96z M747.63,979.26
		c-0.27,0.09-0.41,0.32-0.41,0.67c0.18,0.72,0.36,0.59,0.54-0.41c0.09-0.18,0.11-0.31,0.07-0.41
		C747.78,979.04,747.71,979.08,747.63,979.26z M757.08,974.54c0.09,0,0,0.34-0.27,1.01c-0.27,0.67-0.61,1.53-1.01,2.57
		c-0.41,1.04-0.88,2.18-1.42,3.44c-0.54,1.26-1.08,2.43-1.62,3.51c-0.45,1.17-0.9,2.25-1.35,3.24c-0.45,0.99-0.67,1.62-0.67,1.89
		s-0.09,0.61-0.27,1.01c-0.18,0.41-0.38,0.79-0.61,1.15c-0.23,0.36-0.43,0.65-0.61,0.88c-0.18,0.23-0.27,0.25-0.27,0.07
		c0-0.09,0.04-0.29,0.13-0.61c0.09-0.31,0.29-0.88,0.61-1.69c0.31-0.81,0.79-1.93,1.42-3.38c0.63-1.44,1.48-3.38,2.56-5.8
		c0.9-1.98,1.67-3.69,2.29-5.13C756.62,975.26,756.99,974.54,757.08,974.54z M751.14,971.7c-0.27,0-0.41,0.13-0.41,0.41
		c0.09,0.27,0.22,0.32,0.41,0.13l0.27-0.27c0.09,0,0.14-0.04,0.14-0.14C751.54,971.57,751.41,971.52,751.14,971.7z M755.86,967.25
		c-0.27,0.27-0.36,0.59-0.27,0.95c0,0.54,0.13,0.54,0.4,0c0.18-0.36,0.27-0.67,0.27-0.95c0-0.09-0.05-0.16-0.13-0.2
		C756.04,967,755.95,967.07,755.86,967.25z M757.48,963.87c-0.18,0.54-0.25,0.83-0.2,0.88c0.04,0.05,0.2-0.16,0.47-0.61
		c0.27-0.45,0.4-0.85,0.4-1.21C758.07,962.48,757.84,962.79,757.48,963.87z M760.05,957.8c-0.36-0.27-0.45-0.18-0.27,0.27
		c0.27,0.36,0.49,0.5,0.67,0.41C760.45,958.29,760.32,958.07,760.05,957.8z M763.83,951.05c-0.36-0.09-0.56-0.02-0.61,0.2
		c-0.05,0.23,0.07,0.47,0.34,0.74c0.45,0.36,0.9,0,1.35-1.08c0.36-1.17,0.22-1.71-0.4-1.62c-0.18,0-0.27,0.32-0.27,0.95
		C764.32,950.87,764.19,951.14,763.83,951.05z M768.15,949.02l0.67-1.08c0.18-0.36,0.36-0.72,0.54-1.08
		c0.18-0.36,0.36-0.67,0.54-0.95c0.27-0.63,0.22-0.72-0.13-0.27c-0.18,0.18-0.36,0.43-0.54,0.74c-0.18,0.32-0.36,0.7-0.54,1.15
		L768.15,949.02z M772.47,940.11c-0.09,0-0.25,0.2-0.47,0.61c-0.23,0.41-0.45,0.86-0.67,1.35c-0.23,0.5-0.43,0.97-0.61,1.42
		c-0.18,0.45-0.27,0.72-0.27,0.81c0,0.45,0.45-0.22,1.35-2.02C772.42,940.83,772.65,940.11,772.47,940.11z M774.9,929.31
		c-0.09,0-0.29,0.2-0.61,0.61c-0.32,0.41-0.61,0.88-0.88,1.42c-0.27,0.54-0.5,1.08-0.67,1.62c-0.18,0.54-0.27,0.95-0.27,1.21
		c0,0.45,0.11,0.63,0.34,0.54c0.22-0.09,0.47-0.4,0.74-0.94c0.18-0.27,0.45-0.72,0.81-1.35c0.36-0.63,0.72-1.3,1.08-2.02
		c0.72-1.44,0.9-1.98,0.54-1.62C775.44,929.31,775.08,929.5,774.9,929.31z M778,930.66c0.81-1.35,1.28-2.23,1.42-2.63
		c0.13-0.4,0.11-0.61-0.07-0.61c-0.09,0-0.5,0.61-1.21,1.82c-0.72,1.21-1.49,2.56-2.29,4.05c-0.81,1.48-1.53,2.86-2.16,4.12
		c-0.63,1.26-0.95,1.98-0.95,2.16c0,0.18,0.13,0.07,0.41-0.34c0.27-0.4,0.9-1.51,1.89-3.31c0.45-0.81,0.97-1.73,1.55-2.77
		C777.17,932.13,777.64,931.29,778,930.66z M775.71,926.48c-0.54,0.45-0.72,0.86-0.54,1.21c0.18,0.18,0.45,0.05,0.81-0.41
		c0.54-0.54,0.81-0.67,0.81-0.41c0.18,0.27,0.41,0.09,0.68-0.54c0.36-0.81,0.31-0.9-0.14-0.27c-0.36,0.36-0.54,0.41-0.54,0.13
		C776.7,925.94,776.33,926.03,775.71,926.48z M777.87,923.51c-0.18,0.27-0.25,0.41-0.2,0.41c0.04,0,0.16-0.09,0.34-0.27
		c0.45-0.45,0.54-0.68,0.27-0.68C778,922.7,777.87,922.88,777.87,923.51z M782.73,915.27c-0.36,0.54-0.79,1.19-1.28,1.96
		c-0.5,0.77-0.95,1.49-1.35,2.16c-0.4,0.67-0.74,1.28-1.01,1.82c-0.27,0.54-0.41,0.86-0.41,0.95c0,0.18,0.07,0.13,0.2-0.13
		c0.13-0.27,0.83-1.44,2.09-3.51c1.35-2.16,2.16-3.51,2.43-4.05C783.67,913.92,783.45,914.19,782.73,915.27z"/>
	<path class="st0" d="M777.6,1054.59c0.18,0.45,0.36,1.4,0.54,2.84c0.09,0.99,0.11,1.69,0.07,2.09c-0.05,0.41-0.2,0.79-0.47,1.15
		c-0.45,0.45-0.95,0.72-1.49,0.81c-0.54,0.09-0.9-0.09-1.08-0.54c-0.09-0.27-0.36-0.41-0.81-0.41c-0.27,0-0.65-0.22-1.15-0.67
		c-0.5-0.45-1.01-0.99-1.55-1.62c-0.54-0.63-1.08-1.35-1.62-2.16c-0.54-0.81-0.94-1.53-1.21-2.16c-0.18-0.45-0.34-0.94-0.47-1.48
		c-0.13-0.54-0.2-1.03-0.2-1.49c0-0.99,0.22-1.35,0.67-1.08c0.18,0.09,0.45,0.18,0.81,0.27c0.36,0.09,0.72,0.23,1.08,0.4
		c0.36,0.09,0.92,0.32,1.69,0.67c0.76,0.36,1.51,0.74,2.23,1.15c0.72,0.4,1.37,0.83,1.96,1.28
		C777.17,1054.1,777.51,1054.41,777.6,1054.59z M832.41,906.9c0,0.36-0.32,1.55-0.94,3.58c-0.63,2.03-1.35,4.19-2.16,6.48
		c-0.81,2.29-1.6,4.43-2.36,6.41c-0.77,1.98-1.24,3.11-1.42,3.38c-0.27,0.27-0.5,0.13-0.67-0.41c0-0.18-0.45,0.7-1.35,2.63
		c-0.9,1.94-2.12,4.68-3.64,8.24c-1.53,3.56-3.33,7.81-5.4,12.76c-2.07,4.95-4.32,10.4-6.75,16.34c-1.71,4.32-3.24,8.1-4.59,11.34
		c-1.35,3.24-2.52,6.03-3.51,8.37c-0.99,2.34-1.82,4.25-2.5,5.74c-0.67,1.48-1.24,2.68-1.69,3.58c-0.54,1.17-1.4,3.31-2.56,6.41
		c-1.17,3.1-2.41,6.44-3.71,9.99c-1.31,3.56-2.52,7.02-3.64,10.4c-1.13,3.38-1.91,5.87-2.36,7.49c-0.36,1.26-0.68,2.54-0.95,3.85
		c-0.27,1.31-0.45,2.32-0.54,3.04c-0.36,3.15-1.49,4.19-3.38,3.11c-0.27-0.18-0.54-0.41-0.81-0.67c-0.27-0.27-0.5-0.54-0.68-0.81
		c-0.36-0.54-0.77-0.81-1.21-0.81c-0.36,0-0.81-0.36-1.35-1.08c-0.45-0.45-0.72-0.95-0.81-1.49c-0.09-0.54-0.13-1.48-0.13-2.83
		c0-1.26,0.16-2.72,0.47-4.39c0.31-1.66,0.79-3.64,1.42-5.94c0.63-2.29,1.44-5,2.43-8.1c0.99-3.1,2.2-6.73,3.64-10.87
		c0.54-1.44,1.42-3.73,2.63-6.88c1.21-3.15,2.59-6.55,4.12-10.19c1.53-3.65,3.08-7.29,4.66-10.94c1.57-3.64,2.9-6.73,3.98-9.25
		c0.45-0.99,0.97-2.16,1.55-3.51c0.58-1.35,1.17-2.77,1.75-4.25c0.58-1.49,1.19-2.95,1.82-4.39c0.63-1.44,1.17-2.74,1.62-3.92
		c4.05-9.9,7.11-17.5,9.18-22.81c2.07-5.31,3.1-8.05,3.1-8.24c0-0.09-0.4,0.5-1.21,1.75c-0.36,0.63-0.86,1.28-1.48,1.96
		c-0.63,0.67-1.22,1.24-1.75,1.69c-0.54,0.45-0.97,0.74-1.28,0.88c-0.32,0.13-0.38-0.02-0.2-0.47c0.27-0.27,0.09-0.54-0.54-0.81
		c-0.45-0.18-0.7-0.38-0.74-0.61c-0.05-0.22,0.02-0.7,0.2-1.42c0.09-0.54,0.16-1.17,0.2-1.89c0.04-0.72,0.07-1.3,0.07-1.75
		c-0.09-0.72-0.02-1.39,0.2-2.03c0.22-0.63,0.65-1.44,1.28-2.43c0.54-0.81,1.12-1.66,1.75-2.57c0.63-0.9,1.24-1.71,1.82-2.43
		c0.58-0.72,1.1-1.3,1.55-1.75c0.45-0.45,0.72-0.67,0.81-0.67c0.09,0,0.09,0.11,0,0.34c-0.09,0.23-0.23,0.43-0.41,0.61
		c-0.18,0.27-0.34,0.52-0.47,0.74c-0.13,0.23-0.2,0.43-0.2,0.61c0,0.18,0.31-0.07,0.94-0.74c0.63-0.68,1.39-1.51,2.29-2.5
		c0.99-1.17,1.76-2.16,2.3-2.97c0.54-0.81,0.76-1.35,0.67-1.62c-0.09-0.54-0.07-0.81,0.07-0.81s0.56,0.23,1.28,0.68
		c0.36,0.18,0.81,0.36,1.35,0.54c0.54,0.18,1.03,0.27,1.48,0.27c0.99,0,1.49,0.36,1.49,1.08c0,0.63,0.36,0.86,1.08,0.67
		c0.81-0.18,1.71,0.23,2.7,1.21C831.91,904.79,832.41,905.82,832.41,906.9z M807.16,951.45c0.18-1.08,0.22-1.62,0.14-1.62
		c-0.18,0.36-0.36,0.81-0.54,1.35c-0.18,0.45-0.41,0.92-0.68,1.42c-0.27,0.5-0.54,1.06-0.81,1.69c-0.27,0.63-0.65,1.53-1.15,2.7
		c-0.5,1.17-1.06,2.5-1.69,3.98c-0.63,1.49-1.28,3.04-1.96,4.66c-0.67,1.62-1.37,3.24-2.09,4.86c-1.44,3.24-2.7,6.12-3.78,8.64
		c-1.08,2.52-1.71,3.96-1.89,4.32c-1.44,3.24-3.04,7.2-4.79,11.88c-1.75,4.68-3.42,9.29-5,13.84c-1.58,4.55-2.88,8.55-3.92,12.01
		c-1.04,3.47-1.55,5.6-1.55,6.41c0,0.9,0.09,0.99,0.27,0.27c0.09-0.18,0.25-0.58,0.47-1.21c0.22-0.63,0.47-1.3,0.74-2.03
		c0.18-0.72,0.52-1.8,1.01-3.24c0.49-1.44,0.97-2.83,1.42-4.18c0.99-3.33,2.59-7.87,4.79-13.63c2.2-5.76,4.79-12.15,7.76-19.17
		c2.43-5.85,4.48-10.78,6.14-14.78c1.66-4,3.01-7.29,4.05-9.85c1.03-2.57,1.78-4.5,2.23-5.8
		C806.8,952.65,807.07,951.81,807.16,951.45z M780.16,1027.05c0.18-0.45,0.18-0.81,0-1.08c-0.18-0.18-0.27,0.05-0.27,0.67
		C779.89,1027.28,779.98,1027.41,780.16,1027.05z M792.85,992.36c0.63,1.26,0.95,1.35,0.95,0.27c0-0.45-0.23-0.81-0.68-1.08
		c-0.27-0.09-0.43-0.09-0.47,0C792.6,991.64,792.67,991.91,792.85,992.36z M798.52,981.29c0.18-0.63,0.18-1.12,0-1.48
		c-0.09-0.18-0.16-0.2-0.2-0.07c-0.05,0.14-0.07,0.43-0.07,0.88C798.34,981.24,798.43,981.47,798.52,981.29z M800.28,976.16
		c0.45-1.26,0.65-2.07,0.61-2.43c-0.05-0.36-0.29-0.09-0.74,0.81c-0.36,0.63-0.65,1.44-0.88,2.43c-0.23,0.99-0.25,1.49-0.07,1.49
		c0.09,0,0.22-0.22,0.41-0.67C799.78,977.33,800.01,976.79,800.28,976.16z"/>
</g>
</svg>
